<?xml version="1.0" standalone="no"?>
 <!DOCTYPE svg PUBLIC "-//W3C//DTD SVG 1.1//EN" 
 "http://www.w3.org/Graphics/SVG/1.1/DTD/svg11.dtd"> 
<svg
  xmlns:svg="http://www.w3.org/2000/svg"
  xmlns="http://www.w3.org/2000/svg"
  xmlns:xlink="http://www.w3.org/1999/xlink"
  version="1.1"
  width="52.8320mm" height="27.2542mm" viewBox="0.0000 0.0000 52.8320 27.2542">
<title>SVG Image created as pcba.svg date 2024/09/03 22:51:40 </title>
  <desc>Image generated by PCBNEW </desc>
<g style="fill:#000000; fill-opacity:1.0000;stroke:#000000; stroke-opacity:1.0000;
stroke-linecap:round; stroke-linejoin:round;"
 transform="translate(0 0) scale(1 1)">
</g>
<g style="fill:none; 
stroke:#F2EDA1; stroke-width:1.0000; stroke-opacity:1; 
stroke-linecap:round; stroke-linejoin:round;">
<path d="M1.0000 5.9563
L46.0000 5.9563
" />
<path d="M1.0000 23.9563
L46.0000 23.9563
" />
<path style="fill:#F2EDA1; fill-opacity:1.0000; 
stroke:#F2EDA1; stroke-width:0.1500; stroke-opacity:1; 
stroke-linecap:round; stroke-linejoin:round;fill-rule:evenodd;"
d="M 27.0000,12.4563
32.0000,12.4563
32.0000,17.4563
27.0000,17.4563
Z" /> 
<path style="fill:#F2EDA1; fill-opacity:1.0000; stroke:none;fill-rule:evenodd;"
d="M 37.6119,20.3178
37.6119,20.6520
37.5771,20.7216
37.5076,20.7563
37.4306,20.7563
37.3610,20.7216
37.3262,20.6520
37.3262,20.2992
37.6026,20.2992
Z" /> 
<path style="fill:#F2EDA1; fill-opacity:1.0000; stroke:none;fill-rule:evenodd;"
d="M 36.9680,19.1278
36.9163,19.1278
36.8467,19.0930
36.8119,19.0234
36.8119,18.7750
36.8467,18.7054
36.8801,18.6887
Z" /> 
<path style="fill:#F2EDA1; fill-opacity:1.0000; stroke:none;fill-rule:evenodd;"
d="M 37.5220,17.0921
37.5618,17.1320
37.6119,17.2321
37.6119,17.4806
37.6026,17.4992
36.8212,17.4992
36.8119,17.4806
36.8119,17.2321
36.8620,17.1320
36.9018,17.0921
37.0020,17.0421
37.4218,17.0421
Z" /> 
<path style="fill:#F2EDA1; fill-opacity:1.0000; stroke:none;fill-rule:evenodd;"
d="M 36.9680,9.6992
36.9163,9.6992
36.8467,9.6644
36.8119,9.5948
36.8119,9.3464
36.8467,9.2768
36.8801,9.2601
Z" /> 
<path style="fill:#F2EDA1; fill-opacity:1.0000; stroke:none;fill-rule:evenodd;"
d="M 38.8103,22.5525
35.6119,22.5525
35.6119,21.4706
35.8119,21.4706
35.8119,21.6421
35.8158,21.6811
35.8185,21.6877
35.8190,21.6949
35.8330,21.7315
35.9187,21.9029
35.9228,21.9095
35.9239,21.9125
35.9272,21.9164
35.9396,21.9361
35.9586,21.9525
35.9750,21.9715
35.9947,21.9839
35.9986,21.9872
36.0017,21.9883
36.0082,21.9924
36.1796,22.0781
36.2162,22.0921
36.2234,22.0926
36.2300,22.0954
36.2691,22.0992
36.4119,22.0992
36.4119,22.1563
36.4158,22.1954
36.4456,22.2675
36.5008,22.3226
36.5729,22.3525
36.6509,22.3525
36.7230,22.3226
36.7782,22.2675
36.8081,22.1954
36.8119,22.1563
36.8119,22.0992
37.8119,22.0992
37.8509,22.0954
37.9230,22.0655
37.9782,22.0103
38.0081,21.9382
38.0081,21.8602
37.9782,21.7881
37.9230,21.7329
37.8509,21.7030
37.8119,21.6992
36.8119,21.6992
36.8119,21.4706
36.8081,21.4316
36.7782,21.3595
36.7230,21.3043
36.6509,21.2745
36.5729,21.2745
36.5008,21.3043
36.4456,21.3595
36.4158,21.4316
36.4119,21.4706
36.4119,21.6992
36.3163,21.6992
36.2467,21.6644
36.2119,21.5948
36.2119,21.4706
36.2081,21.4316
36.1782,21.3595
36.1230,21.3043
36.0509,21.2745
35.9729,21.2745
35.9008,21.3043
35.8456,21.3595
35.8158,21.4316
35.8119,21.4706
35.6119,21.4706
35.6119,20.3563
36.4119,20.3563
36.4119,20.6992
36.4158,20.7382
36.4185,20.7449
36.4190,20.7520
36.4330,20.7886
36.5187,20.9601
36.5396,20.9933
36.5986,21.0444
36.6726,21.0691
36.7505,21.0635
36.8203,21.0286
36.8714,20.9697
36.8961,20.8956
36.8905,20.8178
36.8765,20.7812
36.8119,20.6520
36.8119,20.4036
36.8467,20.3340
36.9163,20.2992
36.9169,20.2992
36.9262,20.3178
36.9262,20.6992
36.9300,20.7382
36.9328,20.7449
36.9333,20.7520
36.9473,20.7886
37.0330,20.9601
37.0371,20.9666
37.0382,20.9697
37.0415,20.9735
37.0539,20.9933
37.0729,21.0097
37.0893,21.0286
37.1090,21.0411
37.1129,21.0444
37.1159,21.0454
37.1225,21.0495
37.2939,21.1352
37.3305,21.1492
37.3377,21.1498
37.3443,21.1525
37.3833,21.1563
37.5548,21.1563
37.5938,21.1525
37.6004,21.1498
37.6076,21.1492
37.6442,21.1352
37.8156,21.0495
37.8222,21.0454
37.8252,21.0444
37.8291,21.0411
37.8488,21.0286
37.8653,21.0097
37.8842,20.9933
37.8966,20.9735
37.9000,20.9697
37.9010,20.9666
37.9051,20.9601
37.9908,20.7886
38.0048,20.7520
38.0053,20.7449
38.0081,20.7382
38.0119,20.6992
38.0119,20.2706
38.0081,20.2316
38.0053,20.2250
38.0048,20.2178
37.9908,20.1812
37.9905,20.1806
38.0081,20.1382
38.0081,20.0602
37.9782,19.9881
37.9230,19.9329
37.8509,19.9030
37.8119,19.8992
36.8691,19.8992
36.8300,19.9030
36.8234,19.9058
36.8162,19.9063
36.7796,19.9203
36.6082,20.0060
36.6017,20.0101
36.5986,20.0112
36.5947,20.0145
36.5750,20.0269
36.5586,20.0459
36.5396,20.0623
36.5272,20.0820
36.5239,20.0859
36.5228,20.0890
36.5187,20.0955
36.4330,20.2669
36.4190,20.3035
36.4185,20.3107
36.4158,20.3173
36.4119,20.3563
35.6119,20.3563
35.6119,18.7278
36.4119,18.7278
36.4119,19.0706
36.4158,19.1097
36.4185,19.1163
36.4190,19.1235
36.4330,19.1601
36.5187,19.3315
36.5228,19.3380
36.5239,19.3411
36.5272,19.3449
36.5396,19.3647
36.5586,19.3811
36.5750,19.4001
36.5947,19.4125
36.5986,19.4158
36.6017,19.4168
36.6082,19.4209
36.7796,19.5067
36.8162,19.5207
36.8234,19.5212
36.8300,19.5239
36.8691,19.5278
37.2121,19.5278
37.5548,19.5278
37.5938,19.5239
37.6004,19.5212
37.6076,19.5207
37.6442,19.5067
37.8156,19.4209
37.8222,19.4168
37.8252,19.4158
37.8291,19.4125
37.8488,19.4001
37.8653,19.3811
37.8842,19.3647
37.8966,19.3449
37.9000,19.3411
37.9010,19.3380
37.9051,19.3315
37.9908,19.1601
38.0048,19.1235
38.0053,19.1163
38.0081,19.1097
38.0119,19.0706
38.0119,18.7278
38.0081,18.6888
38.0053,18.6821
38.0048,18.6750
37.9908,18.6383
37.9051,18.4669
37.8842,18.4337
37.8252,18.3826
37.7512,18.3579
37.6734,18.3635
37.6036,18.3984
37.5524,18.4573
37.5278,18.5313
37.5333,18.6092
37.5473,18.6458
37.6119,18.7750
37.6119,19.0234
37.5771,19.0930
37.5076,19.1278
37.3759,19.1278
37.2366,18.4314
37.2252,18.3939
37.2143,18.3776
37.2068,18.3595
37.1928,18.3455
37.1818,18.3291
37.1655,18.3182
37.1516,18.3043
37.1333,18.2968
37.1168,18.2858
37.0976,18.2820
37.0795,18.2745
37.0405,18.2706
36.8691,18.2706
36.8300,18.2745
36.8234,18.2772
36.8162,18.2777
36.7796,18.2917
36.6082,18.3775
36.6017,18.3816
36.5986,18.3826
36.5947,18.3859
36.5750,18.3984
36.5586,18.4173
36.5396,18.4337
36.5272,18.4535
36.5239,18.4573
36.5228,18.4604
36.5187,18.4669
36.4330,18.6383
36.4190,18.6750
36.4185,18.6821
36.4158,18.6888
36.4119,18.7278
35.6119,18.7278
35.6119,17.6602
35.8158,17.6602
35.8158,17.7382
35.8456,17.8103
35.9008,17.8655
35.9729,17.8954
36.0119,17.8992
37.8119,17.8992
37.8509,17.8954
37.9230,17.8655
37.9782,17.8103
38.0081,17.7382
38.0081,17.6602
37.9905,17.6178
37.9908,17.6172
38.0048,17.5806
38.0053,17.5734
38.0081,17.5668
38.0119,17.5278
38.0119,17.1849
38.0081,17.1459
38.0053,17.1393
38.0048,17.1321
37.9908,17.0955
37.9051,16.9240
37.8945,16.9073
37.8925,16.9024
37.8880,16.8969
37.8842,16.8909
37.8802,16.8874
37.8676,16.8721
37.7819,16.7864
37.7666,16.7738
37.7631,16.7698
37.7571,16.7660
37.7516,16.7615
37.7467,16.7595
37.7299,16.7489
37.5585,16.6632
37.5219,16.6492
37.5147,16.6487
37.5081,16.6459
37.4691,16.6421
36.9548,16.6421
36.9158,16.6459
36.9091,16.6487
36.9019,16.6492
36.8653,16.6632
36.6939,16.7489
36.6771,16.7595
36.6722,16.7615
36.6667,16.7660
36.6607,16.7698
36.6573,16.7738
36.6419,16.7864
36.5562,16.8721
36.5436,16.8874
36.5396,16.8909
36.5358,16.8969
36.5313,16.9024
36.5293,16.9073
36.5187,16.9240
36.4330,17.0955
36.4190,17.1321
36.4185,17.1393
36.4158,17.1459
36.4119,17.1849
36.4119,17.4992
36.0119,17.4992
35.9729,17.5030
35.9008,17.5329
35.8456,17.5881
35.8158,17.6602
35.6119,17.6602
35.6119,15.5563
36.4119,15.5563
36.4119,15.7278
36.4158,15.7668
36.4185,15.7734
36.4190,15.7806
36.4330,15.8172
36.4847,15.9205
36.4456,15.9595
36.4158,16.0316
36.4158,16.1097
36.4456,16.1817
36.5008,16.2369
36.5729,16.2668
36.6119,16.2706
37.8119,16.2706
37.8509,16.2668
37.9230,16.2369
37.9782,16.1817
38.0081,16.1097
38.0081,16.0316
37.9782,15.9595
37.9230,15.9043
37.8509,15.8745
37.8119,15.8706
37.0020,15.8706
36.9018,15.8205
36.8620,15.7807
36.8119,15.6806
36.8119,15.5563
36.8081,15.5173
36.7782,15.4452
36.7230,15.3901
36.6509,15.3602
36.5729,15.3602
36.5008,15.3901
36.4456,15.4452
36.4158,15.5173
36.4119,15.5563
35.6119,15.5563
35.6119,14.2414
36.4141,14.2414
36.4179,14.3193
36.4513,14.3899
36.5092,14.4422
36.5446,14.4590
37.2173,14.6992
36.5446,14.9394
36.5092,14.9562
36.4513,15.0085
36.4179,15.0791
36.4141,15.1570
36.4403,15.2305
36.4927,15.2883
36.5632,15.3218
36.6411,15.3256
36.6792,15.3161
37.8079,14.9130
38.1281,15.0411
38.1618,15.0748
38.2330,15.2172
38.2539,15.2504
38.3129,15.3015
38.3869,15.3262
38.4647,15.3207
38.5345,15.2858
38.5857,15.2268
38.6103,15.1528
38.6048,15.0750
38.5908,15.0383
38.5051,14.8669
38.4945,14.8501
38.4925,14.8452
38.4880,14.8397
38.4842,14.8337
38.4802,14.8303
38.4676,14.8149
38.3819,14.7292
38.3516,14.7043
38.3505,14.7039
38.3496,14.7030
38.3148,14.6849
37.8862,14.5135
37.8826,14.5125
37.8792,14.5109
36.6792,14.0823
36.6411,14.0728
36.5632,14.0767
36.4927,14.1101
36.4403,14.1679
36.4141,14.2414
35.6119,14.2414
35.6119,13.5459
35.8158,13.5459
35.8158,13.6239
35.8456,13.6960
35.9008,13.7512
35.9729,13.7811
36.0119,13.7849
37.5548,13.7849
37.5938,13.7811
37.6004,13.7783
37.6076,13.7778
37.6442,13.7638
37.8156,13.6781
37.8222,13.6740
37.8252,13.6730
37.8291,13.6696
37.8488,13.6572
37.8653,13.6383
37.8842,13.6218
37.8966,13.6021
37.9000,13.5983
37.9010,13.5952
37.9051,13.5886
37.9908,13.4172
38.0048,13.3806
38.0103,13.3028
37.9857,13.2287
37.9345,13.1698
37.8647,13.1349
37.7869,13.1293
37.7129,13.1540
37.6539,13.2052
37.6330,13.2383
37.5771,13.3501
37.5076,13.3849
36.0119,13.3849
35.9729,13.3888
35.9008,13.4186
35.8456,13.4738
35.8158,13.5459
35.6119,13.5459
35.6119,11.9271
36.4141,11.9271
36.4179,12.0051
36.4513,12.0756
36.5092,12.1280
36.5446,12.1447
37.2173,12.3849
36.5446,12.6251
36.5092,12.6419
36.4513,12.6943
36.4179,12.7648
36.4141,12.8427
36.4403,12.9162
36.4927,12.9741
36.5632,13.0075
36.6411,13.0113
36.6792,13.0018
37.8079,12.5987
38.1281,12.7268
38.1618,12.7605
38.2330,12.9029
38.2539,12.9361
38.3129,12.9872
38.3869,13.0119
38.4647,13.0064
38.5345,12.9715
38.5857,12.9125
38.6103,12.8385
38.6048,12.7607
38.5908,12.7240
38.5051,12.5526
38.4945,12.5358
38.4925,12.5309
38.4880,12.5255
38.4842,12.5194
38.4802,12.5160
38.4676,12.5006
38.3819,12.4149
38.3516,12.3901
38.3505,12.3896
38.3496,12.3887
38.3148,12.3707
37.8862,12.1992
37.8826,12.1982
37.8792,12.1966
36.6792,11.7680
36.6411,11.7585
36.5632,11.7624
36.4927,11.7958
36.4403,11.8536
36.4141,11.9271
35.6119,11.9271
35.6119,10.4992
36.4119,10.4992
36.4119,11.4421
36.4158,11.4811
36.4456,11.5532
36.5008,11.6084
36.5729,11.6382
36.6509,11.6382
36.7230,11.6084
36.7782,11.5532
36.8081,11.4811
36.8119,11.4421
36.8119,10.9107
37.6883,11.5993
37.6978,11.6053
37.7008,11.6084
37.7057,11.6104
37.7214,11.6204
37.7477,11.6278
37.7729,11.6382
37.7849,11.6382
37.7965,11.6415
37.8236,11.6382
37.8509,11.6382
37.8621,11.6336
37.8740,11.6322
37.8978,11.6188
37.9230,11.6084
37.9315,11.5998
37.9420,11.5939
37.9589,11.5725
37.9782,11.5532
37.9828,11.5420
37.9903,11.5326
37.9976,11.5063
38.0081,11.4811
38.0099,11.4625
38.0113,11.4574
38.0108,11.4532
38.0119,11.4421
38.0119,10.4992
38.0081,10.4602
37.9782,10.3881
37.9230,10.3329
37.8509,10.3030
37.7729,10.3030
37.7008,10.3329
37.6456,10.3881
37.6158,10.4602
37.6119,10.4992
37.6119,11.0306
36.7355,10.3419
36.7260,10.3359
36.7230,10.3329
36.7182,10.3309
36.7024,10.3209
36.6761,10.3135
36.6509,10.3030
36.6389,10.3030
36.6273,10.2998
36.6002,10.3030
36.5729,10.3030
36.5618,10.3077
36.5498,10.3091
36.5260,10.3225
36.5008,10.3329
36.4923,10.3414
36.4818,10.3473
36.4649,10.3688
36.4456,10.3881
36.4410,10.3992
36.4336,10.4087
36.4262,10.4350
36.4158,10.4602
36.4139,10.4788
36.4125,10.4838
36.4130,10.4881
36.4119,10.4992
35.6119,10.4992
35.6119,9.2992
36.4119,9.2992
36.4119,9.6421
36.4158,9.6811
36.4185,9.6877
36.4190,9.6949
36.4330,9.7315
36.5187,9.9029
36.5228,9.9095
36.5239,9.9125
36.5272,9.9164
36.5396,9.9361
36.5586,9.9525
36.5750,9.9715
36.5947,9.9839
36.5986,9.9872
36.6017,9.9883
36.6082,9.9924
36.7796,10.0781
36.8162,10.0921
36.8234,10.0926
36.8300,10.0954
36.8691,10.0992
37.2121,10.0992
37.5548,10.0992
37.5938,10.0954
37.6004,10.0926
37.6076,10.0921
37.6442,10.0781
37.8156,9.9924
37.8222,9.9883
37.8252,9.9872
37.8291,9.9839
37.8488,9.9715
37.8653,9.9525
37.8842,9.9361
37.8966,9.9164
37.9000,9.9125
37.9010,9.9095
37.9051,9.9029
37.9908,9.7315
38.0048,9.6949
38.0053,9.6877
38.0081,9.6811
38.0119,9.6421
38.0119,9.2992
38.0081,9.2602
38.0053,9.2535
38.0048,9.2464
37.9908,9.2098
37.9051,9.0383
37.8842,9.0052
37.8252,8.9540
37.7512,8.9293
37.6734,8.9349
37.6036,8.9698
37.5524,9.0287
37.5278,9.1028
37.5333,9.1806
37.5473,9.2172
37.6119,9.3464
37.6119,9.5948
37.5771,9.6644
37.5076,9.6992
37.3759,9.6992
37.2366,9.0028
37.2252,8.9653
37.2143,8.9491
37.2068,8.9309
37.1928,8.9169
37.1818,8.9005
37.1655,8.8896
37.1516,8.8758
37.1333,8.8682
37.1168,8.8572
37.0976,8.8534
37.0795,8.8459
37.0405,8.8421
36.8691,8.8421
36.8300,8.8459
36.8234,8.8487
36.8162,8.8492
36.7796,8.8632
36.6082,8.9489
36.6017,8.9530
36.5986,8.9540
36.5947,8.9573
36.5750,8.9698
36.5586,8.9887
36.5396,9.0052
36.5272,9.0249
36.5239,9.0287
36.5228,9.0318
36.5187,9.0383
36.4330,9.2098
36.4190,9.2464
36.4185,9.2535
36.4158,9.2602
36.4119,9.2992
35.6119,9.2992
35.6119,7.7563
36.4119,7.7563
36.4119,7.9278
36.4158,7.9668
36.4185,7.9734
36.4190,7.9806
36.4330,8.0172
36.4847,8.1205
36.4456,8.1595
36.4158,8.2316
36.4158,8.3097
36.4456,8.3817
36.5008,8.4369
36.5729,8.4668
36.6119,8.4706
37.8119,8.4706
37.8509,8.4668
37.9230,8.4369
37.9782,8.3817
38.0081,8.3097
38.0081,8.2316
37.9782,8.1595
37.9230,8.1043
37.8509,8.0745
37.8119,8.0706
37.0020,8.0706
36.9018,8.0205
36.8620,7.9807
36.8119,7.8806
36.8119,7.7563
36.8081,7.7173
36.7782,7.6452
36.7230,7.5901
36.6509,7.5602
36.5729,7.5602
36.5008,7.5901
36.4456,7.6452
36.4158,7.7173
36.4119,7.7563
35.6119,7.7563
35.6119,7.3602
38.8103,7.3602
Z" /> 
<path style="fill:#F2EDA1; fill-opacity:1.0000; stroke:none;fill-rule:evenodd;"
d="M 33.9342,17.3751
33.9646,17.4055
33.9989,17.4741
33.9989,17.6291
33.9646,17.6976
33.9342,17.7280
33.8657,17.7623
33.6630,17.7623
33.5945,17.7280
33.5641,17.6976
33.5298,17.6291
33.5298,17.4741
33.5641,17.4055
33.5945,17.3751
33.6630,17.3409
33.8657,17.3409
Z" /> 
<path style="fill:#F2EDA1; fill-opacity:1.0000; stroke:none;fill-rule:evenodd;"
d="M 34.3798,16.5217
34.3798,16.7244
34.3513,16.7814
34.2943,16.8099
34.2344,16.8099
34.1774,16.7814
34.1489,16.7244
34.1489,16.5040
34.1474,16.4893
34.1464,16.4868
34.1462,16.4842
34.1460,16.4837
34.3608,16.4837
Z" /> 
<path style="fill:#F2EDA1; fill-opacity:1.0000; stroke:none;fill-rule:evenodd;"
d="M 34.3152,14.6608
34.3456,14.6913
34.3798,14.7598
34.3798,14.9148
34.3456,14.9833
34.3152,15.0138
34.2466,15.0480
34.0440,15.0480
33.9754,15.0138
33.9450,14.9833
33.9108,14.9148
33.9108,14.7598
33.9450,14.6913
33.9754,14.6608
34.0440,14.6266
34.2466,14.6266
Z" /> 
<path style="fill:#F2EDA1; fill-opacity:1.0000; stroke:none;fill-rule:evenodd;"
d="M 33.7437,12.1847
33.7741,12.2151
33.8084,12.2836
33.8084,12.4386
33.7741,12.5072
33.7437,12.5376
33.6752,12.5718
33.6630,12.5718
33.5945,12.5376
33.5641,12.5072
33.5298,12.4386
33.5298,12.2836
33.5641,12.2151
33.5945,12.1847
33.6630,12.1504
33.6752,12.1504
Z" /> 
<path style="fill:#F2EDA1; fill-opacity:1.0000; stroke:none;fill-rule:evenodd;"
d="M 34.3152,12.1847
34.3456,12.2151
34.3798,12.2836
34.3798,12.4386
34.3456,12.5072
34.3152,12.5376
34.2466,12.5718
34.0916,12.5718
34.0231,12.5376
33.9926,12.5072
33.9584,12.4386
33.9584,12.2836
33.9926,12.2151
34.0231,12.1847
34.0916,12.1504
34.2466,12.1504
Z" /> 
<path style="fill:#F2EDA1; fill-opacity:1.0000; stroke:none;fill-rule:evenodd;"
d="M 34.6409,18.0234
33.2687,18.0234
33.2687,17.4563
33.3798,17.4563
33.3798,17.6468
33.3813,17.6615
33.3823,17.6639
33.3825,17.6666
33.3877,17.6804
33.4354,17.7756
33.4393,17.7819
33.4401,17.7837
33.4418,17.7858
33.4432,17.7880
33.4447,17.7893
33.4494,17.7951
33.4970,17.8427
33.5028,17.8474
33.5041,17.8489
33.5063,17.8504
33.5084,17.8520
33.5102,17.8528
33.5165,17.8568
33.6118,17.9044
33.6255,17.9096
33.6282,17.9098
33.6307,17.9109
33.6453,17.9123
33.8834,17.9123
33.8980,17.9109
33.9005,17.9098
33.9032,17.9096
33.9169,17.9044
34.0122,17.8568
34.0185,17.8528
34.0203,17.8520
34.0224,17.8504
34.0246,17.8489
34.0259,17.8474
34.0317,17.8427
34.0793,17.7951
34.0840,17.7893
34.0855,17.7880
34.0869,17.7858
34.0886,17.7837
34.0894,17.7819
34.0933,17.7756
34.1409,17.6804
34.1462,17.6666
34.1464,17.6639
34.1474,17.6615
34.1489,17.6468
34.1489,17.4563
34.1474,17.4417
34.1464,17.4392
34.1462,17.4365
34.1409,17.4228
34.1118,17.3646
34.1859,17.3831
34.3118,17.4670
34.3456,17.5008
34.3798,17.5693
34.3798,17.7421
34.3813,17.7567
34.3925,17.7837
34.4132,17.8044
34.4402,17.8156
34.4695,17.8156
34.4965,17.8044
34.5172,17.7837
34.5284,17.7567
34.5298,17.7421
34.5298,17.5516
34.5284,17.5370
34.5273,17.5345
34.5272,17.5318
34.5219,17.5180
34.4743,17.4228
34.4703,17.4165
34.4696,17.4147
34.4679,17.4126
34.4665,17.4104
34.4650,17.4091
34.4602,17.4033
34.4126,17.3557
34.4126,17.3557
34.4126,17.3556
34.4068,17.3509
34.4012,17.3464
34.4012,17.3464
34.4012,17.3463
34.2583,17.2511
34.2502,17.2468
34.2488,17.2457
34.2470,17.2450
34.2454,17.2442
34.2435,17.2438
34.2349,17.2407
34.0444,17.1931
34.0419,17.1927
34.0409,17.1923
34.0354,17.1918
34.0299,17.1910
34.0288,17.1911
34.0262,17.1909
33.6453,17.1909
33.6307,17.1923
33.6282,17.1933
33.6255,17.1935
33.6118,17.1988
33.5165,17.2464
33.5102,17.2504
33.5084,17.2511
33.5063,17.2528
33.5041,17.2542
33.5028,17.2557
33.4970,17.2605
33.4494,17.3081
33.4447,17.3138
33.4432,17.3151
33.4418,17.3174
33.4401,17.3194
33.4393,17.3213
33.4354,17.3276
33.3877,17.4228
33.3825,17.4365
33.3823,17.4392
33.3813,17.4417
33.3798,17.4563
33.2687,17.4563
33.2687,16.5516
33.7132,16.5516
33.7132,16.7421
33.7146,16.7567
33.7156,16.7592
33.7158,16.7619
33.7211,16.7756
33.7687,16.8708
33.7765,16.8833
33.7986,16.9025
33.8264,16.9117
33.8556,16.9096
33.8818,16.8965
33.9009,16.8744
33.9102,16.8467
33.9081,16.8175
33.9029,16.8038
33.8632,16.7244
33.8632,16.5693
33.8917,16.5122
33.9487,16.4837
33.9799,16.4837
33.9989,16.5217
33.9989,16.7421
34.0003,16.7567
34.0013,16.7592
34.0015,16.7619
34.0068,16.7756
34.0544,16.8708
34.0559,16.8733
34.0563,16.8744
34.0576,16.8759
34.0622,16.8833
34.0693,16.8894
34.0755,16.8966
34.0829,16.9012
34.0843,16.9025
34.0855,16.9028
34.0879,16.9044
34.1832,16.9520
34.1969,16.9573
34.1996,16.9574
34.2021,16.9585
34.2167,16.9599
34.3120,16.9599
34.3266,16.9585
34.3291,16.9574
34.3318,16.9573
34.3455,16.9520
34.4407,16.9044
34.4432,16.9028
34.4443,16.9025
34.4458,16.9012
34.4532,16.8966
34.4593,16.8894
34.4665,16.8833
34.4711,16.8759
34.4724,16.8744
34.4727,16.8733
34.4743,16.8708
34.5219,16.7756
34.5272,16.7619
34.5273,16.7592
34.5284,16.7567
34.5298,16.7421
34.5298,16.5040
34.5284,16.4893
34.5273,16.4868
34.5272,16.4842
34.5219,16.4704
34.5136,16.4539
34.5172,16.4504
34.5284,16.4234
34.5284,16.3941
34.5172,16.3671
34.4965,16.3464
34.4695,16.3352
34.4548,16.3337
33.9310,16.3337
33.9164,16.3352
33.9139,16.3362
33.9112,16.3364
33.8975,16.3416
33.8022,16.3893
33.7998,16.3908
33.7986,16.3912
33.7972,16.3924
33.7898,16.3971
33.7836,16.4042
33.7765,16.4104
33.7719,16.4178
33.7706,16.4192
33.7702,16.4204
33.7687,16.4228
33.7211,16.5180
33.7158,16.5318
33.7156,16.5345
33.7146,16.5370
33.7132,16.5516
33.2687,16.5516
33.2687,15.5992
33.7132,15.5992
33.7132,15.7897
33.7146,15.8043
33.7156,15.8068
33.7158,15.8095
33.7211,15.8232
33.7687,15.9185
33.7727,15.9248
33.7734,15.9266
33.7751,15.9286
33.7765,15.9309
33.7780,15.9322
33.7827,15.9380
33.8304,15.9856
33.8361,15.9903
33.8374,15.9918
33.8397,15.9932
33.8417,15.9949
33.8435,15.9957
33.8498,15.9996
33.9451,16.0472
33.9588,16.0525
33.9615,16.0527
33.9640,16.0537
33.9786,16.0552
34.2643,16.0552
34.2790,16.0537
34.2815,16.0527
34.2842,16.0525
34.2979,16.0472
34.3931,15.9996
34.3994,15.9957
34.4012,15.9949
34.4033,15.9932
34.4056,15.9918
34.4069,15.9903
34.4126,15.9856
34.4602,15.9380
34.4650,15.9322
34.4665,15.9309
34.4679,15.9286
34.4696,15.9266
34.4703,15.9248
34.4743,15.9185
34.5219,15.8232
34.5272,15.8095
34.5273,15.8068
34.5284,15.8043
34.5298,15.7897
34.5298,15.5992
34.5284,15.5846
34.5273,15.5821
34.5272,15.5794
34.5219,15.5657
34.4743,15.4704
34.4665,15.4580
34.4443,15.4388
34.4166,15.4296
34.3874,15.4316
34.3612,15.4447
34.3420,15.4668
34.3328,15.4946
34.3349,15.5238
34.3401,15.5375
34.3798,15.6169
34.3798,15.7720
34.3456,15.8405
34.3152,15.8709
34.2466,15.9052
33.9963,15.9052
33.9278,15.8709
33.8974,15.8405
33.8632,15.7720
33.8632,15.6169
33.9029,15.5375
33.9081,15.5238
33.9102,15.4946
33.9009,15.4668
33.8818,15.4447
33.8556,15.4316
33.8264,15.4296
33.7986,15.4388
33.7765,15.4580
33.7687,15.4704
33.7211,15.5657
33.7158,15.5794
33.7156,15.5821
33.7146,15.5846
33.7132,15.5992
33.2687,15.5992
33.2687,14.6468
33.3798,14.6468
33.3798,14.8373
33.3813,14.8519
33.3823,14.8544
33.3825,14.8571
33.3877,14.8708
33.4354,14.9661
33.4393,14.9724
33.4401,14.9742
33.4418,14.9763
33.4432,14.9785
33.4447,14.9798
33.4494,14.9856
33.4970,15.0332
33.4971,15.0332
33.4971,15.0332
33.5029,15.0380
33.5084,15.0425
33.5084,15.0425
33.5085,15.0426
33.6513,15.1378
33.6594,15.1421
33.6609,15.1432
33.6626,15.1438
33.6643,15.1447
33.6661,15.1451
33.6747,15.1482
33.8652,15.1958
33.8677,15.1962
33.8688,15.1966
33.8743,15.1971
33.8797,15.1979
33.8808,15.1978
33.8834,15.1980
34.2643,15.1980
34.2790,15.1966
34.2815,15.1955
34.2842,15.1954
34.2979,15.1901
34.3931,15.1425
34.3994,15.1385
34.4012,15.1378
34.4033,15.1361
34.4056,15.1346
34.4069,15.1331
34.4126,15.1284
34.4602,15.0808
34.4650,15.0751
34.4665,15.0738
34.4679,15.0715
34.4696,15.0694
34.4703,15.0676
34.4743,15.0613
34.5219,14.9661
34.5272,14.9523
34.5273,14.9497
34.5284,14.9472
34.5298,14.9325
34.5298,14.7421
34.5284,14.7274
34.5273,14.7249
34.5272,14.7223
34.5219,14.7085
34.4743,14.6133
34.4703,14.6070
34.4696,14.6052
34.4679,14.6031
34.4665,14.6008
34.4650,14.5995
34.4602,14.5938
34.4126,14.5462
34.4069,14.5415
34.4056,14.5400
34.4033,14.5385
34.4012,14.5368
34.3994,14.5361
34.3931,14.5321
34.2979,14.4845
34.2842,14.4792
34.2815,14.4791
34.2790,14.4780
34.2643,14.4766
34.0262,14.4766
34.0116,14.4780
34.0091,14.4791
34.0064,14.4792
33.9927,14.4845
33.8975,14.5321
33.8912,14.5361
33.8893,14.5368
33.8873,14.5385
33.8850,14.5400
33.8837,14.5415
33.8780,14.5462
33.8304,14.5938
33.8256,14.5995
33.8241,14.6008
33.8227,14.6031
33.8210,14.6052
33.8203,14.6070
33.8163,14.6133
33.7687,14.7085
33.7634,14.7223
33.7632,14.7249
33.7622,14.7274
33.7608,14.7421
33.7608,14.9325
33.7622,14.9472
33.7632,14.9497
33.7634,14.9523
33.7687,14.9661
33.7978,15.0243
33.7237,15.0058
33.5978,14.9219
33.5641,14.8881
33.5298,14.8196
33.5298,14.6468
33.5284,14.6322
33.5172,14.6052
33.4965,14.5845
33.4695,14.5733
33.4402,14.5733
33.4132,14.5845
33.3925,14.6052
33.3813,14.6322
33.3798,14.6468
33.2687,14.6468
33.2687,13.8849
33.3798,13.8849
33.3798,13.9802
33.3813,13.9948
33.3823,13.9973
33.3825,14.0000
33.3877,14.0137
33.4354,14.1089
33.4369,14.1114
33.4373,14.1125
33.4385,14.1140
33.4432,14.1214
33.4503,14.1275
33.4565,14.1346
33.4639,14.1393
33.4653,14.1406
33.4664,14.1409
33.4689,14.1425
33.5641,14.1901
33.5779,14.1954
33.5806,14.1955
33.5830,14.1966
33.5977,14.1980
33.7132,14.1980
33.7132,14.2659
33.7146,14.2805
33.7258,14.3075
33.7465,14.3282
33.7735,14.3394
33.8028,14.3394
33.8298,14.3282
33.8505,14.3075
33.8617,14.2805
33.8632,14.2659
33.8632,14.1980
34.4548,14.1980
34.4695,14.1966
34.4965,14.1854
34.5172,14.1647
34.5284,14.1376
34.5284,14.1084
34.5172,14.0813
34.4965,14.0607
34.4695,14.0495
34.4548,14.0480
33.8632,14.0480
33.8632,13.8849
33.8617,13.8703
33.8505,13.8433
33.8298,13.8226
33.8028,13.8114
33.7735,13.8114
33.7465,13.8226
33.7258,13.8433
33.7146,13.8703
33.7132,13.8849
33.7132,14.0480
33.6154,14.0480
33.5583,14.0195
33.5298,13.9625
33.5298,13.8849
33.5284,13.8703
33.5172,13.8433
33.4965,13.8226
33.4695,13.8114
33.4402,13.8114
33.4132,13.8226
33.3925,13.8433
33.3813,13.8703
33.3798,13.8849
33.2687,13.8849
33.2687,12.9802
33.3798,12.9802
33.3798,13.6468
33.3813,13.6615
33.3925,13.6885
33.4132,13.7092
33.4402,13.7204
33.4695,13.7204
33.4965,13.7092
33.5172,13.6885
33.5284,13.6615
33.5298,13.6468
33.5298,13.0939
34.4253,13.4777
34.4393,13.4821
34.4686,13.4825
34.4957,13.4716
34.5167,13.4512
34.5282,13.4243
34.5285,13.3950
34.5177,13.3678
34.4972,13.3469
34.4844,13.3398
33.4844,12.9112
33.4703,12.9068
33.4699,12.9068
33.4695,12.9066
33.4553,12.9066
33.4411,12.9064
33.4407,12.9066
33.4402,12.9066
33.4271,12.9120
33.4139,12.9173
33.4136,12.9176
33.4132,12.9178
33.4031,12.9278
33.3930,12.9377
33.3928,12.9382
33.3925,12.9385
33.3870,12.9516
33.3814,12.9646
33.3814,12.9651
33.3813,12.9655
33.3798,12.9802
33.2687,12.9802
33.2687,12.2659
33.3798,12.2659
33.3798,12.4563
33.3813,12.4710
33.3823,12.4735
33.3825,12.4762
33.3877,12.4899
33.4354,12.5851
33.4393,12.5914
33.4401,12.5933
33.4418,12.5953
33.4432,12.5976
33.4447,12.5989
33.4494,12.6046
33.4970,12.6522
33.5028,12.6570
33.5041,12.6585
33.5063,12.6599
33.5084,12.6616
33.5102,12.6623
33.5165,12.6663
33.6118,12.7139
33.6255,12.7192
33.6282,12.7194
33.6307,12.7204
33.6453,12.7218
33.6929,12.7218
33.7075,12.7204
33.7100,12.7194
33.7127,12.7192
33.7265,12.7139
33.8217,12.6663
33.8280,12.6623
33.8298,12.6616
33.8319,12.6599
33.8341,12.6585
33.8354,12.6570
33.8412,12.6522
33.8834,12.6100
33.9256,12.6522
33.9313,12.6570
33.9326,12.6585
33.9349,12.6599
33.9370,12.6616
33.9388,12.6623
33.9451,12.6663
34.0403,12.7139
34.0541,12.7192
34.0567,12.7194
34.0592,12.7204
34.0739,12.7218
34.2643,12.7218
34.2790,12.7204
34.2815,12.7194
34.2842,12.7192
34.2979,12.7139
34.3931,12.6663
34.3994,12.6623
34.4012,12.6616
34.4033,12.6599
34.4056,12.6585
34.4069,12.6570
34.4126,12.6522
34.4602,12.6046
34.4650,12.5989
34.4665,12.5976
34.4679,12.5953
34.4696,12.5933
34.4703,12.5914
34.4743,12.5851
34.5219,12.4899
34.5272,12.4762
34.5273,12.4735
34.5284,12.4710
34.5298,12.4563
34.5298,12.2659
34.5284,12.2512
34.5273,12.2488
34.5272,12.2461
34.5219,12.2323
34.4743,12.1371
34.4703,12.1308
34.4696,12.1290
34.4679,12.1269
34.4665,12.1246
34.4650,12.1233
34.4602,12.1176
34.4126,12.0700
34.4069,12.0653
34.4056,12.0638
34.4033,12.0623
34.4012,12.0607
34.3994,12.0599
34.3931,12.0559
34.2979,12.0083
34.2842,12.0031
34.2815,12.0029
34.2790,12.0018
34.2643,12.0004
34.0739,12.0004
34.0592,12.0018
34.0567,12.0029
34.0541,12.0031
34.0403,12.0083
33.9451,12.0559
33.9388,12.0599
33.9370,12.0607
33.9349,12.0623
33.9326,12.0638
33.9313,12.0653
33.9256,12.0700
33.8834,12.1122
33.8412,12.0700
33.8354,12.0653
33.8341,12.0638
33.8319,12.0623
33.8298,12.0607
33.8280,12.0599
33.8217,12.0559
33.7265,12.0083
33.7127,12.0031
33.7100,12.0029
33.7075,12.0018
33.6929,12.0004
33.6453,12.0004
33.6307,12.0018
33.6282,12.0029
33.6255,12.0031
33.6118,12.0083
33.5165,12.0559
33.5102,12.0599
33.5084,12.0607
33.5063,12.0623
33.5041,12.0638
33.5028,12.0653
33.4970,12.0700
33.4494,12.1176
33.4447,12.1234
33.4432,12.1246
33.4418,12.1269
33.4401,12.1290
33.4393,12.1308
33.4354,12.1371
33.3877,12.2323
33.3825,12.2461
33.3823,12.2487
33.3813,12.2512
33.3798,12.2659
33.2687,12.2659
33.2687,11.8893
34.6409,11.8893
Z" /> 
<path style="fill:#F2EDA1; fill-opacity:1.0000; stroke:none;fill-rule:evenodd;"
d="M 14.0926,9.8825
2.6387,9.8825
2.6387,6.6781
2.8609,6.6781
2.8609,9.5353
2.8633,9.5596
2.8820,9.6047
2.9165,9.6392
2.9615,9.6579
2.9859,9.6603
3.4621,9.6603
3.4865,9.6579
3.5315,9.6392
3.5660,9.6047
3.5847,9.5596
3.5847,9.5109
3.5660,9.4658
3.5315,9.4313
3.4865,9.4127
3.4621,9.4103
3.1109,9.4103
3.1109,6.8031
3.4621,6.8031
3.4865,6.8007
3.5315,6.7820
3.5660,6.7476
3.5847,6.7025
3.5847,6.6537
5.4347,6.6537
5.4347,6.7025
5.4534,6.7476
5.4879,6.7820
5.5329,6.8007
5.5573,6.8031
5.9085,6.8031
5.9085,9.4103
5.5573,9.4103
5.5329,9.4127
5.4879,9.4313
5.4534,9.4658
5.4347,9.5109
5.4347,9.5596
5.4534,9.6047
5.4879,9.6392
5.5329,9.6579
5.5573,9.6603
6.0335,9.6603
6.0579,9.6579
6.1030,9.6392
6.1375,9.6047
6.1561,9.5596
6.1585,9.5353
6.1585,7.7257
8.3847,7.7257
8.3847,8.0114
8.3851,8.0157
8.3849,8.0175
8.3862,8.0266
8.3871,8.0358
8.3878,8.0375
8.3884,8.0418
8.4837,8.4227
8.4843,8.4245
8.4844,8.4254
8.4883,8.4356
8.4919,8.4458
8.4925,8.4465
8.4931,8.4483
8.5884,8.6388
8.5950,8.6493
8.5963,8.6523
8.5991,8.6558
8.6014,8.6595
8.6039,8.6617
8.6118,8.6713
8.8023,8.8617
8.8212,8.8773
8.8254,8.8790
8.8288,8.8819
8.8511,8.8919
9.1368,8.9872
9.1489,8.9899
9.1520,8.9912
9.1564,8.9916
9.1607,8.9926
9.1640,8.9924
9.1764,8.9936
9.3669,8.9936
9.3792,8.9924
9.3825,8.9926
9.3868,8.9916
9.3912,8.9912
9.3943,8.9899
9.4064,8.9872
9.6921,8.8919
9.7145,8.8819
9.7179,8.8790
9.7220,8.8773
9.7410,8.8617
9.8362,8.7665
9.8517,8.7476
9.8704,8.7025
9.8704,8.6537
9.8517,8.6087
9.8173,8.5742
9.7722,8.5555
9.7234,8.5555
9.6784,8.5742
9.6594,8.5897
9.5850,8.6641
9.3466,8.7436
9.1967,8.7436
8.9582,8.6641
8.8029,8.5088
8.7229,8.3488
8.6347,7.9961
8.6347,7.7411
8.7229,7.3884
8.8029,7.2283
8.9582,7.0731
9.1967,6.9936
9.3466,6.9936
9.5850,7.0731
9.6594,7.1475
9.6784,7.1630
9.7234,7.1817
9.7722,7.1817
9.8173,7.1630
9.8517,7.1285
9.8704,7.0835
9.8704,7.0347
9.8517,6.9896
9.8362,6.9707
9.7410,6.8754
9.7326,6.8686
10.4799,6.8686
10.4799,8.8686
10.4824,8.8930
10.5010,8.9380
10.5355,8.9725
10.5806,8.9912
10.6293,8.9912
10.6744,8.9725
10.7089,8.9380
10.7275,8.8930
10.7299,8.8686
10.7299,7.9460
11.6228,7.9460
11.6228,8.8686
11.6252,8.8930
11.6439,8.9380
11.6784,8.9725
11.7234,8.9912
11.7722,8.9912
11.8173,8.9725
11.8517,8.9380
11.8704,8.8930
11.8728,8.8686
11.8728,7.4244
12.4809,7.4244
12.4844,7.4730
12.5062,7.5167
12.5430,7.5486
12.5893,7.5640
12.6380,7.5606
12.6609,7.5518
12.8513,7.4566
12.8618,7.4500
12.8649,7.4487
12.8683,7.4459
12.8721,7.4435
12.8742,7.4410
12.8838,7.4332
13.0514,7.2656
13.0514,8.7436
12.6049,8.7436
12.5806,8.7460
12.5355,8.7647
12.5010,8.7991
12.4824,8.8442
12.4824,8.8930
12.5010,8.9380
12.5355,8.9725
12.5806,8.9912
12.6049,8.9936
13.7478,8.9936
13.7722,8.9912
13.8173,8.9725
13.8517,8.9380
13.8704,8.8930
13.8704,8.8442
13.8517,8.7991
13.8173,8.7647
13.7722,8.7460
13.7478,8.7436
13.3014,8.7436
13.3014,6.8686
13.3014,6.8685
13.3014,6.8685
13.3014,6.8683
13.2990,6.8442
13.2942,6.8328
13.2918,6.8206
13.2850,6.8105
13.2803,6.7991
13.2716,6.7904
13.2647,6.7801
13.2545,6.7733
13.2458,6.7647
13.2344,6.7599
13.2241,6.7531
13.2121,6.7507
13.2008,6.7460
13.1884,6.7460
13.1762,6.7436
13.1642,6.7460
13.1520,6.7460
13.1406,6.7507
13.1284,6.7532
13.1182,6.7600
13.1069,6.7647
13.0982,6.7734
13.0879,6.7803
13.0725,6.7991
13.0724,6.7991
13.0724,6.7992
13.0724,6.7992
12.8888,7.0747
12.7214,7.2420
12.5490,7.3282
12.5283,7.3413
12.4964,7.3781
12.4809,7.4244
11.8728,7.4244
11.8728,6.8686
11.8704,6.8442
11.8517,6.7991
11.8173,6.7647
11.7722,6.7460
11.7234,6.7460
11.6784,6.7647
11.6439,6.7991
11.6252,6.8442
11.6228,6.8686
11.6228,7.6960
10.7299,7.6960
10.7299,6.8686
10.7275,6.8442
10.7089,6.7991
10.6744,6.7647
10.6293,6.7460
10.5806,6.7460
10.5355,6.7647
10.5010,6.7991
10.4824,6.8442
10.4799,6.8686
9.7326,6.8686
9.7220,6.8599
9.7179,6.8582
9.7145,6.8552
9.6921,6.8452
9.4064,6.7500
9.3943,6.7473
9.3912,6.7460
9.3868,6.7456
9.3825,6.7446
9.3792,6.7448
9.3669,6.7436
9.1764,6.7436
9.1640,6.7448
9.1607,6.7446
9.1564,6.7456
9.1520,6.7460
9.1489,6.7473
9.1368,6.7500
8.8511,6.8452
8.8288,6.8552
8.8254,6.8582
8.8212,6.8599
8.8023,6.8754
8.6118,7.0659
8.6039,7.0755
8.6014,7.0777
8.5991,7.0814
8.5963,7.0849
8.5950,7.0879
8.5884,7.0984
8.4931,7.2889
8.4925,7.2907
8.4919,7.2914
8.4883,7.3016
8.4844,7.3118
8.4843,7.3127
8.4837,7.3145
8.3884,7.6954
8.3878,7.6996
8.3871,7.7013
8.3862,7.7105
8.3849,7.7197
8.3851,7.7215
8.3847,7.7257
6.1585,7.7257
6.1585,6.6781
6.1561,6.6537
6.1375,6.6087
6.1030,6.5742
6.0579,6.5555
6.0335,6.5531
5.5573,6.5531
5.5329,6.5555
5.4879,6.5742
5.4534,6.6087
5.4347,6.6537
3.5847,6.6537
3.5660,6.6087
3.5315,6.5742
3.4865,6.5555
3.4621,6.5531
2.9859,6.5531
2.9615,6.5555
2.9165,6.5742
2.8820,6.6087
2.8633,6.6537
2.8609,6.6781
2.6387,6.6781
2.6387,6.3309
14.0926,6.3309
Z" /> 
<path style="fill:#F2EDA1; fill-opacity:1.0000; stroke:none;fill-rule:evenodd;"
d="M 14.0950,14.3825
2.6387,14.3825
2.6387,11.1781
2.8609,11.1781
2.8609,14.0353
2.8633,14.0596
2.8820,14.1047
2.9165,14.1392
2.9615,14.1579
2.9859,14.1603
3.4621,14.1603
3.4865,14.1579
3.5315,14.1392
3.5660,14.1047
3.5847,14.0596
3.5847,14.0109
3.5660,13.9658
3.5315,13.9313
3.4865,13.9127
3.4621,13.9103
3.1109,13.9103
3.1109,11.3031
3.4621,11.3031
3.4865,11.3007
3.5315,11.2820
3.5660,11.2476
3.5847,11.2025
3.5847,11.1537
5.4347,11.1537
5.4347,11.2025
5.4534,11.2476
5.4879,11.2820
5.5329,11.3007
5.5573,11.3031
5.9085,11.3031
5.9085,13.9103
5.5573,13.9103
5.5329,13.9127
5.4879,13.9313
5.4534,13.9658
5.4347,14.0109
5.4347,14.0596
5.4534,14.1047
5.4879,14.1392
5.5329,14.1579
5.5573,14.1603
6.0335,14.1603
6.0579,14.1579
6.1030,14.1392
6.1375,14.1047
6.1561,14.0596
6.1585,14.0353
6.1585,12.2257
8.3847,12.2257
8.3847,12.5114
8.3851,12.5157
8.3849,12.5175
8.3862,12.5266
8.3871,12.5358
8.3878,12.5375
8.3884,12.5418
8.4837,12.9227
8.4843,12.9245
8.4844,12.9254
8.4883,12.9356
8.4919,12.9458
8.4925,12.9465
8.4931,12.9483
8.5884,13.1388
8.5950,13.1493
8.5963,13.1523
8.5991,13.1558
8.6014,13.1595
8.6039,13.1617
8.6118,13.1713
8.8023,13.3617
8.8212,13.3773
8.8254,13.3790
8.8288,13.3819
8.8511,13.3919
9.1368,13.4872
9.1489,13.4899
9.1520,13.4912
9.1564,13.4916
9.1607,13.4926
9.1640,13.4924
9.1764,13.4936
9.3669,13.4936
9.3792,13.4924
9.3825,13.4926
9.3868,13.4916
9.3912,13.4912
9.3943,13.4899
9.4064,13.4872
9.6921,13.3919
9.7145,13.3819
9.7179,13.3790
9.7220,13.3773
9.7410,13.3617
9.8362,13.2665
9.8517,13.2476
9.8704,13.2025
9.8704,13.1537
9.8517,13.1087
9.8173,13.0742
9.7722,13.0555
9.7234,13.0555
9.6784,13.0742
9.6594,13.0897
9.5850,13.1641
9.3466,13.2436
9.1967,13.2436
8.9582,13.1641
8.8029,13.0088
8.7229,12.8488
8.6347,12.4961
8.6347,12.2411
8.7229,11.8884
8.8029,11.7283
8.9582,11.5731
9.1967,11.4936
9.3466,11.4936
9.5850,11.5731
9.6594,11.6475
9.6784,11.6630
9.7234,11.6817
9.7722,11.6817
9.8173,11.6630
9.8517,11.6285
9.8704,11.5834
9.8704,11.5347
9.8517,11.4896
9.8362,11.4707
9.7410,11.3754
9.7326,11.3686
10.4799,11.3686
10.4799,13.3686
10.4824,13.3930
10.5010,13.4380
10.5355,13.4725
10.5806,13.4912
10.6293,13.4912
10.6744,13.4725
10.7089,13.4380
10.7275,13.3930
10.7299,13.3686
10.7299,12.4460
11.6228,12.4460
11.6228,13.3686
11.6252,13.3930
11.6439,13.4380
11.6784,13.4725
11.7234,13.4912
11.7722,13.4912
11.8173,13.4725
11.8517,13.4380
11.8704,13.3930
11.8728,13.3686
11.8728,13.3442
12.3871,13.3442
12.3871,13.3930
12.4058,13.4380
12.4403,13.4725
12.4721,13.4857
12.4853,13.4912
12.4853,13.4912
12.5097,13.4936
13.7478,13.4936
13.7722,13.4912
13.8173,13.4725
13.8517,13.4380
13.8704,13.3930
13.8704,13.3442
13.8517,13.2991
13.8173,13.2647
13.7722,13.2460
13.7478,13.2436
12.8115,13.2436
13.7410,12.3141
13.7565,12.2952
13.7582,12.2910
13.7612,12.2876
13.7712,12.2653
13.8664,11.9795
13.8691,11.9675
13.8704,11.9644
13.8708,11.9600
13.8718,11.9556
13.8716,11.9524
13.8728,11.9400
13.8728,11.7495
13.8704,11.7252
13.8687,11.7210
13.8684,11.7165
13.8596,11.6936
13.7644,11.5032
13.7578,11.4927
13.7565,11.4896
13.7537,11.4862
13.7513,11.4824
13.7488,11.4803
13.7410,11.4707
13.6457,11.3754
13.6361,11.3676
13.6340,11.3651
13.6302,11.3627
13.6268,11.3599
13.6237,11.3586
13.6132,11.3520
13.4228,11.2568
13.3999,11.2480
13.3954,11.2477
13.3912,11.2460
13.3669,11.2436
12.8907,11.2436
12.8663,11.2460
12.8621,11.2477
12.8576,11.2480
12.8348,11.2568
12.6443,11.3520
12.6338,11.3586
12.6307,11.3599
12.6273,11.3627
12.6235,11.3651
12.6214,11.3676
12.6118,11.3754
12.5166,11.4707
12.5010,11.4896
12.4824,11.5347
12.4824,11.5834
12.5010,11.6285
12.5355,11.6630
12.5806,11.6817
12.6293,11.6817
12.6744,11.6630
12.6933,11.6475
12.7742,11.5666
12.9202,11.4936
13.3373,11.4936
13.4833,11.5666
13.5498,11.6331
13.6228,11.7790
13.6228,11.9197
13.5433,12.1582
12.4213,13.2802
12.4058,13.2991
12.4058,13.2991
12.3926,13.3310
12.3907,13.3356
12.3871,13.3442
11.8728,13.3442
11.8728,11.3686
11.8704,11.3442
11.8517,11.2991
11.8173,11.2647
11.7722,11.2460
11.7234,11.2460
11.6784,11.2647
11.6439,11.2991
11.6252,11.3442
11.6228,11.3686
11.6228,12.1960
10.7299,12.1960
10.7299,11.3686
10.7275,11.3442
10.7089,11.2991
10.6744,11.2647
10.6293,11.2460
10.5806,11.2460
10.5355,11.2647
10.5010,11.2991
10.4824,11.3442
10.4799,11.3686
9.7326,11.3686
9.7220,11.3599
9.7179,11.3582
9.7145,11.3552
9.6921,11.3452
9.4064,11.2500
9.3943,11.2473
9.3912,11.2460
9.3868,11.2456
9.3825,11.2446
9.3792,11.2448
9.3669,11.2436
9.1764,11.2436
9.1640,11.2448
9.1607,11.2446
9.1564,11.2456
9.1520,11.2460
9.1489,11.2473
9.1368,11.2500
8.8511,11.3452
8.8288,11.3552
8.8254,11.3582
8.8212,11.3599
8.8023,11.3754
8.6118,11.5659
8.6039,11.5755
8.6014,11.5777
8.5991,11.5814
8.5963,11.5849
8.5950,11.5879
8.5884,11.5984
8.4931,11.7889
8.4925,11.7907
8.4919,11.7914
8.4883,11.8016
8.4844,11.8118
8.4843,11.8127
8.4837,11.8145
8.3884,12.1954
8.3878,12.1996
8.3871,12.2013
8.3862,12.2105
8.3849,12.2197
8.3851,12.2215
8.3847,12.2257
6.1585,12.2257
6.1585,11.1781
6.1561,11.1537
6.1375,11.1087
6.1030,11.0742
6.0579,11.0555
6.0335,11.0531
5.5573,11.0531
5.5329,11.0555
5.4879,11.0742
5.4534,11.1087
5.4347,11.1537
3.5847,11.1537
3.5660,11.1087
3.5315,11.0742
3.4865,11.0555
3.4621,11.0531
2.9859,11.0531
2.9615,11.0555
2.9165,11.0742
2.8820,11.1087
2.8633,11.1537
2.8609,11.1781
2.6387,11.1781
2.6387,10.8309
14.0950,10.8309
Z" /> 
<path style="fill:#F2EDA1; fill-opacity:1.0000; stroke:none;fill-rule:evenodd;"
d="M 13.7690,16.0666
13.8355,16.1331
13.9085,16.2790
13.9085,16.5057
13.8355,16.6517
13.7690,16.7182
13.6231,16.7912
13.0157,16.7912
13.0157,15.9936
13.6231,15.9936
Z" /> 
<path style="fill:#F2EDA1; fill-opacity:1.0000; stroke:none;fill-rule:evenodd;"
d="M 9.4833,16.0666
9.5498,16.1331
9.6228,16.2790
9.6228,16.5057
9.5498,16.6517
9.4833,16.7182
9.3373,16.7912
8.7299,16.7912
8.7299,15.9936
9.3373,15.9936
Z" /> 
<path style="fill:#F2EDA1; fill-opacity:1.0000; stroke:none;fill-rule:evenodd;"
d="M 14.3807,18.8825
2.6387,18.8825
2.6387,15.6781
2.8609,15.6781
2.8609,18.5353
2.8633,18.5596
2.8820,18.6047
2.9165,18.6392
2.9615,18.6579
2.9859,18.6603
3.4621,18.6603
3.4865,18.6579
3.5315,18.6392
3.5660,18.6047
3.5847,18.5596
3.5847,18.5109
3.5660,18.4658
3.5315,18.4313
3.4865,18.4127
3.4621,18.4103
3.1109,18.4103
3.1109,15.8031
3.4621,15.8031
3.4865,15.8007
3.5315,15.7820
3.5660,15.7476
3.5847,15.7025
3.5847,15.6537
5.4347,15.6537
5.4347,15.7025
5.4534,15.7476
5.4879,15.7820
5.5329,15.8007
5.5573,15.8031
5.9085,15.8031
5.9085,18.4103
5.5573,18.4103
5.5329,18.4127
5.4879,18.4313
5.4534,18.4658
5.4347,18.5109
5.4347,18.5596
5.4534,18.6047
5.4879,18.6392
5.5329,18.6579
5.5573,18.6603
6.0335,18.6603
6.0579,18.6579
6.1030,18.6392
6.1375,18.6047
6.1561,18.5596
6.1585,18.5353
6.1585,15.8686
8.4799,15.8686
8.4799,17.8686
8.4824,17.8930
8.5010,17.9380
8.5355,17.9725
8.5806,17.9912
8.6293,17.9912
8.6744,17.9725
8.7089,17.9380
8.7275,17.8930
8.7299,17.8686
8.7299,17.0412
9.3669,17.0412
9.3912,17.0388
9.3954,17.0371
9.3999,17.0368
9.4228,17.0280
9.6132,16.9328
9.6237,16.9262
9.6268,16.9249
9.6302,16.9221
9.6340,16.9197
9.6361,16.9172
9.6457,16.9094
9.7410,16.8141
9.7488,16.8045
9.7513,16.8024
9.7537,16.7986
9.7565,16.7952
9.7578,16.7921
9.7644,16.7816
9.8596,16.5912
9.8684,16.5683
9.8687,16.5638
9.8704,16.5596
9.8728,16.5353
9.8728,16.2495
9.8704,16.2252
9.8687,16.2210
9.8684,16.2165
9.8596,16.1936
9.7644,16.0032
9.7578,15.9927
9.7565,15.9896
9.7537,15.9862
9.7513,15.9824
9.7488,15.9803
9.7410,15.9707
9.6457,15.8754
9.6431,15.8733
10.2896,15.8733
10.2929,15.8975
10.7691,17.8975
10.7719,17.9059
10.7723,17.9089
10.7739,17.9116
10.7770,17.9207
10.7877,17.9354
10.7968,17.9511
10.8019,17.9550
10.8056,17.9602
10.8211,17.9697
10.8355,17.9808
10.8417,17.9824
10.8472,17.9858
10.8651,17.9887
10.8826,17.9933
10.8890,17.9925
10.8953,17.9935
10.9130,17.9893
10.9310,17.9869
10.9365,17.9837
10.9428,17.9822
10.9575,17.9716
10.9732,17.9625
10.9771,17.9574
10.9823,17.9536
10.9918,17.9381
11.0028,17.9237
11.0062,17.9147
11.0079,17.9121
11.0083,17.9091
11.0114,17.9008
11.2716,16.9251
11.5318,17.9008
11.5349,17.9091
11.5354,17.9121
11.5370,17.9147
11.5404,17.9237
11.5514,17.9381
11.5609,17.9536
11.5661,17.9574
11.5700,17.9625
11.5857,17.9716
11.6004,17.9822
11.6067,17.9837
11.6122,17.9869
11.6302,17.9893
11.6479,17.9935
11.6542,17.9925
11.6606,17.9933
11.6781,17.9887
11.6961,17.9858
11.7015,17.9824
11.7077,17.9808
11.7221,17.9697
11.7376,17.9602
11.7414,17.9550
11.7464,17.9511
11.7555,17.9354
11.7662,17.9207
11.7693,17.9116
11.7709,17.9089
11.7713,17.9059
11.7742,17.8975
12.2504,15.8975
12.2537,15.8733
12.2529,15.8686
12.7657,15.8686
12.7657,17.8686
12.7681,17.8930
12.7867,17.9380
12.8212,17.9725
12.8663,17.9912
12.9150,17.9912
12.9601,17.9725
12.9946,17.9380
13.0133,17.8930
13.0157,17.8686
13.0157,17.0412
13.3018,17.0412
13.9311,17.9403
13.9471,17.9589
13.9882,17.9851
14.0362,17.9936
14.0838,17.9830
14.1238,17.9550
14.1500,17.9139
14.1585,17.8659
14.1479,17.8183
14.1359,17.7969
13.6069,17.0412
13.6526,17.0412
13.6770,17.0388
13.6811,17.0371
13.6856,17.0368
13.7085,17.0280
13.8989,16.9328
13.9094,16.9262
13.9125,16.9249
13.9159,16.9221
13.9197,16.9197
13.9218,16.9172
13.9314,16.9094
14.0267,16.8141
14.0345,16.8045
14.0370,16.8024
14.0394,16.7986
14.0422,16.7952
14.0435,16.7921
14.0501,16.7816
14.1453,16.5912
14.1541,16.5683
14.1544,16.5638
14.1561,16.5596
14.1585,16.5353
14.1585,16.2495
14.1561,16.2252
14.1544,16.2210
14.1541,16.2165
14.1453,16.1936
14.0501,16.0032
14.0435,15.9927
14.0422,15.9896
14.0394,15.9862
14.0370,15.9824
14.0345,15.9803
14.0267,15.9707
13.9314,15.8754
13.9218,15.8676
13.9197,15.8651
13.9159,15.8627
13.9125,15.8599
13.9094,15.8586
13.8989,15.8520
13.7085,15.7568
13.6856,15.7480
13.6811,15.7477
13.6770,15.7460
13.6526,15.7436
12.8907,15.7436
12.8663,15.7460
12.8212,15.7647
12.7867,15.7991
12.7681,15.8442
12.7657,15.8686
12.2529,15.8686
12.2460,15.8251
12.2204,15.7836
12.1809,15.7550
12.1334,15.7437
12.0853,15.7514
12.0437,15.7770
12.0151,15.8165
12.0072,15.8396
11.6457,17.3577
11.3924,16.4078
11.3903,16.4021
11.3899,16.3997
11.3883,16.3968
11.3838,16.3849
11.3738,16.3718
11.3655,16.3575
11.3591,16.3526
11.3541,16.3461
11.3399,16.3379
11.3268,16.3278
11.3189,16.3258
11.3119,16.3217
11.2956,16.3195
11.2796,16.3153
11.2716,16.3163
11.2636,16.3153
11.2477,16.3195
11.2313,16.3217
11.2243,16.3258
11.2165,16.3278
11.2034,16.3379
11.1891,16.3461
11.1842,16.3526
11.1777,16.3575
11.1695,16.3718
11.1594,16.3849
11.1549,16.3968
11.1533,16.3997
11.1530,16.4021
11.1508,16.4078
10.8975,17.3577
10.5361,15.8396
10.5281,15.8165
10.4995,15.7770
10.4580,15.7514
10.4098,15.7437
10.3624,15.7550
10.3228,15.7836
10.2973,15.8251
10.2896,15.8733
9.6431,15.8733
9.6361,15.8676
9.6340,15.8651
9.6302,15.8627
9.6268,15.8599
9.6237,15.8586
9.6132,15.8520
9.4228,15.7568
9.3999,15.7480
9.3954,15.7477
9.3912,15.7460
9.3669,15.7436
8.6049,15.7436
8.5806,15.7460
8.5355,15.7647
8.5010,15.7991
8.4824,15.8442
8.4799,15.8686
6.1585,15.8686
6.1585,15.6781
6.1561,15.6537
6.1375,15.6087
6.1030,15.5742
6.0579,15.5555
6.0335,15.5531
5.5573,15.5531
5.5329,15.5555
5.4879,15.5742
5.4534,15.6087
5.4347,15.6537
3.5847,15.6537
3.5660,15.6087
3.5315,15.5742
3.4865,15.5555
3.4621,15.5531
2.9859,15.5531
2.9615,15.5555
2.9165,15.5742
2.8820,15.6087
2.8633,15.6537
2.8609,15.6781
2.6387,15.6781
2.6387,15.3309
14.3807,15.3309
Z" /> 
<path style="fill:#F2EDA1; fill-opacity:1.0000; stroke:none;fill-rule:evenodd;"
d="M 12.7172,21.6722
12.1117,21.6722
12.4145,20.7639
Z" /> 
<path style="fill:#F2EDA1; fill-opacity:1.0000; stroke:none;fill-rule:evenodd;"
d="M 18.7617,23.3825
2.6387,23.3825
2.6387,20.1781
2.8609,20.1781
2.8609,23.0353
2.8633,23.0596
2.8820,23.1047
2.9165,23.1392
2.9615,23.1579
2.9859,23.1603
3.4621,23.1603
3.4865,23.1579
3.5315,23.1392
3.5660,23.1047
3.5847,23.0596
3.5847,23.0109
3.5660,22.9658
3.5315,22.9313
3.4865,22.9127
3.4621,22.9103
3.1109,22.9103
3.1109,20.3031
3.4621,20.3031
3.4865,20.3007
3.5315,20.2820
3.5660,20.2476
3.5847,20.2025
3.5847,20.1537
5.4347,20.1537
5.4347,20.2025
5.4534,20.2476
5.4879,20.2820
5.5329,20.3007
5.5573,20.3031
5.9085,20.3031
5.9085,22.9103
5.5573,22.9103
5.5329,22.9127
5.4879,22.9313
5.4534,22.9658
5.4347,23.0109
5.4347,23.0596
5.4534,23.1047
5.4879,23.1392
5.5329,23.1579
5.5573,23.1603
6.0335,23.1603
6.0579,23.1579
6.1030,23.1392
6.1375,23.1047
6.1561,23.0596
6.1585,23.0353
6.1585,20.7495
8.3847,20.7495
8.3847,20.9400
8.3871,20.9644
8.3888,20.9685
8.3891,20.9730
8.3979,20.9959
8.4931,21.1864
8.4998,21.1969
8.5010,21.1999
8.5038,21.2034
8.5062,21.2071
8.5087,21.2093
8.5166,21.2189
8.6118,21.3141
8.6214,21.3220
8.6235,21.3245
8.6273,21.3268
8.6307,21.3297
8.6338,21.3309
8.6443,21.3375
8.8348,21.4328
8.8365,21.4335
8.8373,21.4340
8.8475,21.4376
8.8576,21.4415
8.8585,21.4416
8.8603,21.4422
9.2280,21.5341
9.3880,21.6142
9.4546,21.6807
9.5276,21.8267
9.5276,21.9581
9.4546,22.1041
9.3880,22.1706
9.2421,22.2436
8.8157,22.2436
8.5492,22.1548
8.5253,22.1493
8.4767,22.1528
8.4331,22.1746
8.4011,22.2114
8.3857,22.2577
8.3891,22.3064
8.4110,22.3500
8.4478,22.3819
8.4702,22.3919
8.7559,22.4872
8.7680,22.4899
8.7710,22.4912
8.7755,22.4916
8.7798,22.4926
8.7831,22.4924
8.7954,22.4936
9.2716,22.4936
9.2960,22.4912
9.3002,22.4895
9.3046,22.4891
9.3275,22.4804
9.5180,22.3852
9.5285,22.3785
9.5315,22.3773
9.5350,22.3745
9.5387,22.3721
9.5409,22.3696
9.5505,22.3617
9.6457,22.2665
9.6536,22.2569
9.6561,22.2547
9.6584,22.2510
9.6613,22.2476
9.6625,22.2445
9.6691,22.2340
9.7644,22.0435
9.7731,22.0206
9.7734,22.0162
9.7752,22.0120
9.7776,21.9876
9.7776,21.7972
9.7752,21.7728
9.7734,21.7686
9.7731,21.7641
9.7644,21.7413
9.6691,21.5508
9.6625,21.5403
9.6613,21.5372
9.6584,21.5338
9.6561,21.5300
9.6536,21.5279
9.6457,21.5183
9.5505,21.4231
9.5409,21.4152
9.5387,21.4127
9.5350,21.4103
9.5315,21.4075
9.5285,21.4062
9.5180,21.3996
9.3275,21.3044
9.3257,21.3037
9.3250,21.3032
9.3148,21.2995
9.3046,21.2956
9.3037,21.2956
9.3019,21.2949
8.9343,21.2030
8.7742,21.1230
8.7077,21.0564
8.6347,20.9105
8.6347,20.7790
8.7077,20.6331
8.7742,20.5666
8.9202,20.4936
9.3466,20.4936
9.6130,20.5824
9.6369,20.5878
9.6856,20.5844
9.7292,20.5626
9.7612,20.5257
9.7766,20.4795
9.7731,20.4308
9.7513,20.3872
9.7145,20.3552
9.6921,20.3452
9.6890,20.3442
10.1014,20.3442
10.1014,20.3930
10.1201,20.4380
10.1546,20.4725
10.1996,20.4912
10.2240,20.4936
10.6704,20.4936
10.6704,22.3686
10.6728,22.3930
10.6915,22.4380
10.7260,22.4725
10.7710,22.4912
10.8198,22.4912
10.8649,22.4725
10.8994,22.4380
10.9180,22.3930
10.9204,22.3686
10.9204,22.3530
11.6238,22.3530
11.6272,22.4016
11.6491,22.4452
11.6859,22.4772
11.7322,22.4926
11.7808,22.4891
11.8244,22.4673
11.8564,22.4305
11.8664,22.4081
12.0284,21.9222
12.8006,21.9222
12.9626,22.4081
12.9725,22.4305
13.0045,22.4673
13.0481,22.4891
13.0968,22.4926
13.1430,22.4772
13.1799,22.4452
13.2017,22.4016
13.2052,22.3530
13.1997,22.3291
12.5381,20.3442
13.3395,20.3442
13.3395,20.3930
13.3582,20.4380
13.3926,20.4725
13.4377,20.4912
13.4621,20.4936
13.9085,20.4936
13.9085,22.3686
13.9109,22.3930
13.9296,22.4380
13.9641,22.4725
14.0091,22.4912
14.0579,22.4912
14.1030,22.4725
14.1375,22.4380
14.1561,22.3930
14.1585,22.3686
14.1585,20.4936
14.6049,20.4936
14.6293,20.4912
14.6744,20.4725
14.7089,20.4380
14.7275,20.3930
14.7275,20.3686
15.1466,20.3686
15.1466,21.9876
15.1490,22.0120
15.1507,22.0162
15.1511,22.0206
15.1598,22.0435
15.2551,22.2340
15.2617,22.2445
15.2629,22.2476
15.2657,22.2510
15.2681,22.2547
15.2706,22.2569
15.2785,22.2665
15.3737,22.3617
15.3833,22.3696
15.3855,22.3721
15.3892,22.3745
15.3926,22.3773
15.3957,22.3785
15.4062,22.3852
15.5967,22.4804
15.6196,22.4891
15.6240,22.4895
15.6282,22.4912
15.6526,22.4936
16.0335,22.4936
16.0579,22.4912
16.0621,22.4895
16.0665,22.4891
16.0894,22.4804
16.2799,22.3852
16.2904,22.3785
16.2934,22.3773
16.2969,22.3745
16.3006,22.3721
16.3028,22.3696
16.3124,22.3617
16.4076,22.2665
16.4155,22.2569
16.4180,22.2547
16.4203,22.2510
16.4232,22.2476
16.4244,22.2445
16.4310,22.2340
16.5263,22.0435
16.5350,22.0206
16.5354,22.0162
16.5371,22.0120
16.5395,21.9876
16.5395,20.7495
17.1466,20.7495
17.1466,20.9400
17.1490,20.9644
17.1507,20.9685
17.1511,20.9730
17.1598,20.9959
17.2551,21.1864
17.2617,21.1969
17.2629,21.1999
17.2657,21.2034
17.2681,21.2071
17.2706,21.2093
17.2785,21.2189
17.3737,21.3141
17.3833,21.3220
17.3855,21.3245
17.3892,21.3268
17.3926,21.3297
17.3957,21.3309
17.4062,21.3375
17.5967,21.4328
17.5985,21.4335
17.5992,21.4340
17.6094,21.4376
17.6196,21.4415
17.6205,21.4416
17.6223,21.4422
17.9899,21.5341
18.1500,21.6142
18.2165,21.6807
18.2895,21.8267
18.2895,21.9581
18.2165,22.1041
18.1500,22.1706
18.0040,22.2436
17.5776,22.2436
17.3111,22.1548
17.2873,22.1493
17.2386,22.1528
17.1950,22.1746
17.1630,22.2114
17.1476,22.2577
17.1511,22.3064
17.1729,22.3500
17.2097,22.3819
17.2321,22.3919
17.5178,22.4872
17.5299,22.4899
17.5329,22.4912
17.5374,22.4916
17.5417,22.4926
17.5450,22.4924
17.5573,22.4936
18.0335,22.4936
18.0579,22.4912
18.0621,22.4895
18.0665,22.4891
18.0894,22.4804
18.2799,22.3852
18.2904,22.3785
18.2934,22.3773
18.2969,22.3745
18.3006,22.3721
18.3028,22.3696
18.3124,22.3617
18.4076,22.2665
18.4155,22.2569
18.4180,22.2547
18.4203,22.2510
18.4232,22.2476
18.4244,22.2445
18.4310,22.2340
18.5263,22.0435
18.5350,22.0206
18.5354,22.0162
18.5371,22.0120
18.5395,21.9876
18.5395,21.7972
18.5371,21.7728
18.5354,21.7686
18.5350,21.7641
18.5263,21.7413
18.4310,21.5508
18.4244,21.5403
18.4232,21.5372
18.4204,21.5338
18.4180,21.5300
18.4155,21.5279
18.4076,21.5183
18.3124,21.4231
18.3028,21.4152
18.3006,21.4127
18.2969,21.4103
18.2934,21.4075
18.2904,21.4062
18.2799,21.3996
18.0894,21.3044
18.0876,21.3037
18.0869,21.3032
18.0767,21.2995
18.0665,21.2956
18.0656,21.2956
18.0638,21.2949
17.6962,21.2030
17.5361,21.1230
17.4696,21.0564
17.3966,20.9105
17.3966,20.7790
17.4696,20.6331
17.5361,20.5666
17.6821,20.4936
18.1085,20.4936
18.3749,20.5824
18.3988,20.5878
18.4475,20.5844
18.4911,20.5626
18.5231,20.5257
18.5385,20.4795
18.5350,20.4308
18.5132,20.3872
18.4764,20.3552
18.4540,20.3452
18.1683,20.2500
18.1562,20.2473
18.1531,20.2460
18.1487,20.2456
18.1444,20.2446
18.1411,20.2448
18.1288,20.2436
17.6526,20.2436
17.6282,20.2460
17.6240,20.2477
17.6196,20.2480
17.5967,20.2568
17.4062,20.3520
17.3957,20.3586
17.3926,20.3599
17.3892,20.3627
17.3855,20.3651
17.3833,20.3676
17.3737,20.3754
17.2785,20.4707
17.2706,20.4803
17.2681,20.4824
17.2657,20.4862
17.2629,20.4896
17.2617,20.4927
17.2551,20.5032
17.1598,20.6936
17.1511,20.7165
17.1507,20.7210
17.1490,20.7252
17.1466,20.7495
16.5395,20.7495
16.5395,20.3686
16.5371,20.3442
16.5184,20.2991
16.4839,20.2647
16.4389,20.2460
16.3901,20.2460
16.3450,20.2647
16.3105,20.2991
16.2919,20.3442
16.2895,20.3686
16.2895,21.9581
16.2165,22.1041
16.1500,22.1706
16.0040,22.2436
15.6821,22.2436
15.5361,22.1706
15.4696,22.1041
15.3966,21.9581
15.3966,20.3686
15.3942,20.3442
15.3756,20.2991
15.3411,20.2647
15.2960,20.2460
15.2472,20.2460
15.2022,20.2647
15.1677,20.2991
15.1490,20.3442
15.1466,20.3686
14.7275,20.3686
14.7275,20.3442
14.7089,20.2991
14.6744,20.2647
14.6293,20.2460
14.6049,20.2436
13.4621,20.2436
13.4377,20.2460
13.3926,20.2647
13.3582,20.2991
13.3395,20.3442
12.5381,20.3442
12.5331,20.3291
12.5231,20.3067
12.5172,20.2999
12.5132,20.2919
12.5014,20.2817
12.4911,20.2698
12.4831,20.2658
12.4764,20.2600
12.4615,20.2550
12.4475,20.2480
12.4386,20.2474
12.4301,20.2446
12.4145,20.2457
12.3988,20.2446
12.3904,20.2474
12.3815,20.2480
12.3674,20.2550
12.3526,20.2600
12.3458,20.2658
12.3378,20.2698
12.3276,20.2817
12.3157,20.2919
12.3117,20.2999
12.3059,20.3067
12.2959,20.3291
11.6292,22.3291
11.6238,22.3530
10.9204,22.3530
10.9204,20.4936
11.3669,20.4936
11.3912,20.4912
11.4363,20.4725
11.4708,20.4380
11.4895,20.3930
11.4895,20.3442
11.4708,20.2991
11.4363,20.2647
11.3912,20.2460
11.3669,20.2436
10.2240,20.2436
10.1996,20.2460
10.1546,20.2647
10.1201,20.2991
10.1014,20.3442
9.6890,20.3442
9.4064,20.2500
9.3943,20.2473
9.3912,20.2460
9.3868,20.2456
9.3825,20.2446
9.3792,20.2448
9.3669,20.2436
8.8907,20.2436
8.8663,20.2460
8.8621,20.2477
8.8576,20.2480
8.8348,20.2568
8.6443,20.3520
8.6338,20.3586
8.6307,20.3599
8.6273,20.3627
8.6235,20.3651
8.6214,20.3676
8.6118,20.3754
8.5166,20.4707
8.5087,20.4803
8.5062,20.4824
8.5038,20.4862
8.5010,20.4896
8.4998,20.4927
8.4931,20.5032
8.3979,20.6936
8.3891,20.7165
8.3888,20.7210
8.3871,20.7252
8.3847,20.7495
6.1585,20.7495
6.1585,20.1781
6.1561,20.1537
6.1375,20.1087
6.1030,20.0742
6.0579,20.0555
6.0335,20.0531
5.5573,20.0531
5.5329,20.0555
5.4879,20.0742
5.4534,20.1087
5.4347,20.1537
3.5847,20.1537
3.5660,20.1087
3.5315,20.0742
3.4865,20.0555
3.4621,20.0531
2.9859,20.0531
2.9615,20.0555
2.9165,20.0742
2.8820,20.1087
2.8633,20.1537
2.8609,20.1781
2.6387,20.1781
2.6387,19.8309
18.7617,19.8309
Z" /> 
</g>
<g style="fill:none; 
stroke:#F2EDA1; stroke-width:0.1000; stroke-opacity:1; 
stroke-linecap:round; stroke-linejoin:round;">
<g transform="rotate(-90.000000 40.5000 14.9563)">
<text x="40.5000" y="15.4563"
textLength="1.8143" font-size="1.3333" lengthAdjust="spacingAndGlyphs"
text-anchor="middle" opacity="0" stroke-opacity="0">J1</text>
</g>
<g class="stroked-text"><desc>J1</desc>
<path d="M39.9574 15.2897
L40.6717 15.2897
" />
<path d="M40.6717 15.2897
L40.8146 15.3373
" />
<path d="M40.8146 15.3373
L40.9098 15.4325
" />
<path d="M40.9098 15.4325
L40.9574 15.5754
" />
<path d="M40.9574 15.5754
L40.9574 15.6706
" />
<path d="M40.9574 14.2897
L40.9574 14.8611
" />
<path d="M40.9574 14.5754
L39.9574 14.5754
" />
<path d="M39.9574 14.5754
L40.1003 14.6706
" />
<path d="M40.1003 14.6706
L40.1955 14.7659
" />
<path d="M40.1955 14.7659
L40.2431 14.8611
" />
</g><path style="fill:#F2EDA1; fill-opacity:1.0000; stroke:none;fill-rule:evenodd;"
d="M 19.8786,16.4190
20.1135,16.7715
19.6436,17.2414
19.6436,16.6540
19.6436,16.0665
Z" /> 
<path style="fill:#F2EDA1; fill-opacity:1.0000; stroke:none;fill-rule:evenodd;"
d="M 22.4730,13.7295
21.6523,13.7291
20.8315,13.7286
21.3780,13.4548
21.9244,13.1810
Z" /> 
<path style="fill:#F2EDA1; fill-opacity:1.0000; stroke:none;fill-rule:evenodd;"
d="M 22.5207,12.9483
22.5162,13.6692
22.2548,13.4077
21.9934,13.1462
22.2353,13.0255
22.4772,12.9048
Z" /> 
<path style="fill:#F2EDA1; fill-opacity:1.0000; stroke:none;fill-rule:evenodd;"
d="M 22.0369,12.8920
22.3348,12.8924
22.1404,12.9909
22.0872,13.0177
22.0392,13.0418
21.9986,13.0621
21.9673,13.0776
21.9476,13.0871
21.9416,13.0898
21.9343,13.0841
21.9170,13.0682
21.8918,13.0441
21.8609,13.0137
21.8380,12.9909
21.7390,12.8915
Z" /> 
<path style="fill:#F2EDA1; fill-opacity:1.0000; stroke:none;fill-rule:evenodd;"
d="M 19.7986,14.9045
19.9526,15.2112
19.9290,15.2381
19.9040,15.2759
19.8923,15.3188
19.8935,15.3690
19.9068,15.4272
19.9063,15.4354
19.8999,15.4476
19.8862,15.4654
19.8641,15.4902
19.8322,15.5235
19.7893,15.5668
19.7778,15.5783
19.6436,15.7121
19.6441,15.1550
19.6445,14.5978
Z" /> 
<path style="fill:#F2EDA1; fill-opacity:1.0000; stroke:none;fill-rule:evenodd;"
d="M 20.0327,13.3278
20.1134,13.4086
20.1826,13.4781
20.2411,13.5372
20.2896,13.5866
20.3289,13.6273
20.3598,13.6600
20.3832,13.6857
20.3997,13.7050
20.4102,13.7189
20.4155,13.7282
20.4163,13.7338
20.4163,13.7339
20.4127,13.7515
20.4089,13.7796
20.4063,13.8056
20.4018,13.8601
19.6825,14.2186
19.6630,14.2000
19.6436,14.1813
19.6436,12.9391
Z" /> 
<path style="fill:#F2EDA1; fill-opacity:1.0000; stroke:none;fill-rule:evenodd;"
d="M 20.2238,15.4245
20.2483,15.4283
20.2875,15.4351
20.3403,15.4447
20.4055,15.4568
20.4821,15.4714
20.5688,15.4881
20.6646,15.5067
20.7684,15.5271
20.8790,15.5490
20.9953,15.5722
21.0907,15.5913
21.9633,15.7668
21.2489,15.7676
20.5344,15.7685
20.5102,15.7893
20.4860,15.8101
20.4816,15.9580
20.4773,16.1059
20.3224,15.7956
20.1674,15.4853
20.1898,15.4587
20.2048,15.4398
20.2142,15.4260
20.2151,15.4240
Z" /> 
<path style="fill:#F2EDA1; fill-opacity:1.0000; stroke:none;fill-rule:evenodd;"
d="M 21.0561,13.2806
20.9751,13.3615
20.9054,13.4309
20.8462,13.4896
20.7966,13.5382
20.7558,13.5776
20.7229,13.6086
20.6973,13.6320
20.6780,13.6484
20.6641,13.6588
20.6550,13.6638
20.6501,13.6645
20.5999,13.6518
20.5590,13.6480
20.5221,13.6530
20.4903,13.6638
20.4827,13.6604
20.4658,13.6471
20.4394,13.6237
20.4031,13.5899
20.3565,13.5452
20.2992,13.4894
20.2309,13.4221
20.1512,13.3429
20.0886,13.2804
19.6998,12.8915
21.4449,12.8915
Z" /> 
<path style="fill:#F2EDA1; fill-opacity:1.0000; stroke:none;fill-rule:evenodd;"
d="M 20.4816,16.8463
20.4816,16.9209
20.4814,16.9899
20.4812,17.0512
20.4809,17.1032
20.4805,17.1440
20.4801,17.1717
20.4796,17.1845
20.4795,17.1851
20.4743,17.1782
20.4609,17.1587
20.4404,17.1285
20.4142,17.0894
20.3834,17.0434
20.3494,16.9922
20.3477,16.9897
20.3134,16.9379
20.2823,16.8904
20.2558,16.8495
20.2350,16.8169
20.2212,16.7947
20.2158,16.7848
20.2158,16.7848
20.2210,16.7761
20.2368,16.7572
20.2614,16.7300
20.2933,16.6963
20.3305,16.6582
20.3475,16.6411
20.4816,16.5073
Z" /> 
<path style="fill:#F2EDA1; fill-opacity:1.0000; stroke:none;fill-rule:evenodd;"
d="M 21.7772,13.0341
21.8086,13.0659
21.8347,13.0932
21.8535,13.1140
21.8629,13.1259
21.8636,13.1278
21.8554,13.1322
21.8330,13.1437
21.7976,13.1616
21.7504,13.1853
21.6928,13.2143
21.6259,13.2479
21.5510,13.2854
21.4693,13.3263
21.3820,13.3699
21.3110,13.4053
20.7624,13.6791
21.1296,13.3111
21.2139,13.2269
21.2866,13.1547
21.3482,13.0941
21.3992,13.0446
21.4400,13.0059
21.4711,12.9775
21.4929,12.9590
21.5058,12.9499
21.5097,12.9489
21.5634,12.9643
21.6166,12.9646
21.6445,12.9581
21.6868,12.9440
Z" /> 
<path style="fill:#F2EDA1; fill-opacity:1.0000; stroke:none;fill-rule:evenodd;"
d="M 19.6903,15.9709
19.7127,15.9816
19.7475,15.9986
19.7930,16.0210
19.8478,16.0481
19.9104,16.0791
19.9791,16.1133
20.0453,16.1464
20.4039,16.3256
20.4039,16.3706
20.4059,16.4015
20.4109,16.4287
20.4141,16.4381
20.4171,16.4461
20.4171,16.4542
20.4129,16.4642
20.4031,16.4779
20.3861,16.4972
20.3606,16.5238
20.3252,16.5595
20.2953,16.5893
20.1663,16.7180
19.9244,16.3546
19.8676,16.2693
19.8198,16.1972
19.7803,16.1373
19.7485,16.0885
19.7235,16.0497
19.7049,16.0198
19.6918,15.9979
19.6837,15.9827
19.6798,15.9732
19.6795,15.9684
19.6818,15.9672
Z" /> 
<path style="fill:#F2EDA1; fill-opacity:1.0000; stroke:none;fill-rule:evenodd;"
d="M 19.9944,15.5059
20.0214,15.5134
20.0541,15.5176
20.0645,15.5179
20.1059,15.5179
20.2847,15.8755
20.3266,15.9594
20.3612,16.0293
20.3893,16.0864
20.4114,16.1321
20.4281,16.1678
20.4400,16.1948
20.4477,16.2144
20.4518,16.2281
20.4528,16.2371
20.4515,16.2428
20.4488,16.2462
20.4442,16.2487
20.4372,16.2491
20.4263,16.2469
20.4103,16.2415
20.3878,16.2322
20.3574,16.2185
20.3178,16.1997
20.2677,16.1753
20.2057,16.1446
20.1305,16.1071
20.0758,16.0798
19.7175,15.9004
19.7200,15.8658
19.7181,15.8340
19.7101,15.8017
19.7087,15.7980
19.6948,15.7649
19.8302,15.6294
19.9655,15.4938
Z" /> 
<path style="fill:#F2EDA1; fill-opacity:1.0000; stroke:none;fill-rule:evenodd;"
d="M 20.1599,16.8467
20.1742,16.8662
20.1955,16.8966
20.2226,16.9362
20.2544,16.9831
20.2896,17.0355
20.3021,17.0541
20.3434,17.1163
20.3758,17.1659
20.4003,17.2043
20.4177,17.2330
20.4289,17.2538
20.4347,17.2680
20.4362,17.2773
20.4342,17.2830
20.4305,17.2866
20.4237,17.2896
20.4126,17.2919
20.3953,17.2938
20.3705,17.2952
20.3366,17.2962
20.2919,17.2969
20.2350,17.2973
20.1642,17.2976
20.0781,17.2976
20.0574,17.2976
19.6912,17.2976
19.9201,17.0687
19.9718,17.0171
20.0197,16.9696
20.0624,16.9274
20.0985,16.8921
20.1267,16.8648
20.1456,16.8469
20.1539,16.8398
20.1540,16.8397
Z" /> 
<path style="fill:#F2EDA1; fill-opacity:1.0000; stroke:none;fill-rule:evenodd;"
d="M 20.4562,13.9459
20.4816,13.9640
20.4818,14.4191
20.4819,14.5219
20.4820,14.6087
20.4822,14.6811
20.4829,14.7404
20.4840,14.7881
20.4857,14.8255
20.4882,14.8541
20.4915,14.8752
20.4959,14.8903
20.5014,14.9008
20.5082,14.9081
20.5165,14.9135
20.5263,14.9185
20.5307,14.9208
20.5407,14.9227
20.5629,14.9244
20.5979,14.9260
20.6463,14.9273
20.7086,14.9284
20.7854,14.9293
20.8772,14.9300
20.9847,14.9306
21.1083,14.9310
21.2478,14.9313
21.9460,14.9321
21.0950,15.1036
20.9762,15.1276
20.8620,15.1505
20.7536,15.1723
20.6521,15.1925
20.5588,15.2112
20.4747,15.2279
20.4011,15.2425
20.3391,15.2547
20.2897,15.2643
20.2543,15.2711
20.2340,15.2749
20.2294,15.2756
20.2152,15.2690
20.2010,15.2526
20.2005,15.2519
20.1699,15.2165
20.1272,15.1934
20.0727,15.1826
20.0697,15.1824
20.0140,15.1789
19.6577,14.4659
19.6806,14.4386
19.7033,14.4012
19.7172,14.3570
19.7199,14.3141
19.7197,14.3123
19.7165,14.2848
20.4308,13.9278
Z" /> 
<path style="fill:#F2EDA1; fill-opacity:1.0000; stroke:none;fill-rule:evenodd;"
d="M 22.4419,14.9316
22.4556,14.9342
22.4662,14.9381
22.4748,14.9432
22.4822,14.9493
22.4893,14.9563
22.4925,14.9595
22.5205,14.9884
22.5205,15.7063
22.4894,15.7374
22.4729,15.7531
22.4589,15.7623
22.4419,15.7666
22.4167,15.7678
22.3922,15.7676
22.3771,15.7666
22.3536,15.7636
22.3210,15.7586
22.2787,15.7515
22.2258,15.7421
22.1618,15.7302
22.0859,15.7158
21.9975,15.6988
21.8959,15.6789
21.7803,15.6560
21.6501,15.6301
21.5046,15.6010
21.3431,15.5685
21.2851,15.5568
21.1539,15.5303
21.0276,15.5048
20.9071,15.4804
20.7935,15.4574
20.6878,15.4360
20.5910,15.4164
20.5041,15.3987
20.4283,15.3832
20.3643,15.3701
20.3134,15.3597
20.2764,15.3520
20.2545,15.3474
20.2485,15.3460
20.2573,15.3442
20.2821,15.3393
20.3218,15.3313
20.3753,15.3206
20.4416,15.3074
20.5197,15.2917
20.6086,15.2740
20.7072,15.2542
20.8145,15.2328
20.9294,15.2098
21.0510,15.1855
21.1782,15.1600
21.2894,15.1378
21.4522,15.1052
21.5989,15.0759
21.7304,15.0497
21.8476,15.0265
21.9514,15.0062
22.0426,14.9886
22.1221,14.9736
22.1907,14.9610
22.2494,14.9508
22.2991,14.9429
22.3406,14.9370
22.3747,14.9330
22.4024,14.9309
22.4245,14.9305
Z" /> 
<path style="fill:#F2EDA1; fill-opacity:1.0000; stroke:none;fill-rule:evenodd;"
d="M 21.0475,10.4751
21.1308,10.4814
21.2024,10.4933
21.2673,10.5120
21.3305,10.5388
21.3440,10.5456
21.3570,10.5527
21.3841,10.5680
21.4248,10.5912
21.4784,10.6218
21.5441,10.6594
21.6211,10.7036
21.7089,10.7540
21.8067,10.8102
21.9138,10.8718
22.0294,10.9384
22.1530,11.0095
22.2836,11.0848
22.4208,11.1639
22.5636,11.2463
22.7116,11.3316
22.8638,11.4195
23.0196,11.5095
23.0389,11.5206
23.2248,11.6280
23.3964,11.7271
23.5541,11.8183
23.6987,11.9019
23.8307,11.9784
23.9508,12.0479
24.0594,12.1110
24.1573,12.1679
24.2450,12.2191
24.3231,12.2648
24.3923,12.3054
24.4531,12.3413
24.5061,12.3728
24.5519,12.4003
24.5911,12.4241
24.6243,12.4447
24.6522,12.4622
24.6753,12.4772
24.6942,12.4899
24.7095,12.5007
24.7218,12.5099
24.7318,12.5180
24.7397,12.5250
24.8186,12.6096
24.8856,12.7059
24.9395,12.8116
24.9758,12.9133
24.9957,12.9822
24.9957,14.9563
24.9957,15.1747
24.9957,15.3764
24.9957,15.5622
24.9956,15.7327
24.9955,15.8887
24.9954,16.0308
24.9952,16.1597
24.9950,16.2761
24.9948,16.3805
24.9945,16.4739
24.9941,16.5567
24.9936,16.6296
24.9931,16.6935
24.9926,16.7489
24.9919,16.7964
24.9911,16.8369
24.9903,16.8709
24.9894,16.8992
24.9883,16.9224
24.9872,16.9411
24.9860,16.9562
24.9846,16.9682
24.9831,16.9779
24.9815,16.9858
24.9805,16.9900
24.9508,17.0808
24.9094,17.1706
24.8586,17.2561
24.8006,17.3337
24.7376,17.4001
24.6904,17.4389
24.6768,17.4477
24.6491,17.4645
24.6083,17.4888
24.5551,17.5202
24.4903,17.5582
24.4149,17.6023
24.3295,17.6520
24.2351,17.7069
24.1325,17.7665
24.0224,17.8303
23.9058,17.8978
23.7835,17.9686
23.6562,18.0422
23.5249,18.1180
23.3903,18.1957
23.2533,18.2747
23.1146,18.3546
22.9752,18.4348
22.8359,18.5150
22.6974,18.5946
22.5607,18.6732
22.4265,18.7503
22.2956,18.8254
22.1690,18.8980
22.0474,18.9676
21.9316,19.0339
21.8225,19.0962
21.7209,19.1542
21.6277,19.2073
21.5436,19.2551
21.4695,19.2971
21.4063,19.3328
21.3547,19.3617
21.3156,19.3834
21.2897,19.3974
21.2781,19.4032
21.1945,19.4270
21.1016,19.4420
21.0051,19.4477
20.9108,19.4437
20.8560,19.4361
20.8140,19.4271
20.7687,19.4155
20.7380,19.4062
20.7203,19.3984
20.6882,19.3821
20.6423,19.3576
20.5831,19.3252
20.5110,19.2851
20.4266,19.2376
20.3304,19.1831
20.2228,19.1218
20.1045,19.0541
19.9759,18.9800
19.9446,18.9620
19.7092,18.8261
19.4883,18.6986
19.2814,18.5792
19.0880,18.4676
18.9078,18.3636
18.7401,18.2668
18.5846,18.1770
18.4408,18.0939
18.3082,18.0173
18.1863,17.9468
18.0746,17.8823
17.9728,17.8233
17.8803,17.7697
17.7967,17.7211
17.7214,17.6773
17.6541,17.6381
17.5942,17.6031
17.5413,17.5720
17.4949,17.5446
17.4545,17.5206
17.4197,17.4998
17.3900,17.4818
17.3650,17.4664
17.3441,17.4533
17.3269,17.4423
17.3129,17.4330
17.3017,17.4252
17.2927,17.4186
17.2856,17.4129
17.2798,17.4079
17.2749,17.4032
17.2704,17.3987
17.2658,17.3940
17.2607,17.3888
17.2567,17.3849
17.1832,17.3049
17.1216,17.2159
17.0706,17.1157
17.0377,17.0298
17.0129,16.9564
17.0105,14.9909
17.0102,14.7720
17.0100,14.5696
17.0098,14.3832
17.0097,14.2120
17.0096,14.0555
17.0096,13.9128
17.0097,13.7833
17.0097,13.6664
17.0099,13.5614
17.0101,13.4676
17.0105,13.3843
17.0108,13.3108
17.0113,13.2465
17.0119,13.1908
17.0125,13.1428
17.0132,13.1020
17.0141,13.0677
17.0150,13.0391
17.0160,13.0157
17.0172,12.9968
17.0184,12.9816
17.0198,12.9695
17.0213,12.9598
17.0220,12.9563
17.0461,12.8683
17.0781,12.7896
19.3781,12.7896
19.3801,12.8216
19.3913,12.8579
19.4094,12.8932
19.4308,12.9211
19.4422,12.9307
19.4622,12.9438
19.4622,14.1756
19.4355,14.2009
19.4035,14.2390
19.3862,14.2805
19.3813,14.3257
19.3868,14.3717
19.4022,14.4141
19.4255,14.4476
19.4407,14.4604
19.4622,14.4745
19.4622,15.7091
19.4359,15.7312
19.4030,15.7693
19.3841,15.8144
19.3792,15.8631
19.3886,15.9121
19.4122,15.9580
19.4289,15.9782
19.4622,16.0132
19.4622,17.2344
19.4287,17.2696
19.3975,17.3136
19.3816,17.3616
19.3806,17.4106
19.3939,17.4577
19.4210,17.5000
19.4615,17.5346
19.4751,17.5425
19.5061,17.5522
19.5457,17.5560
19.5861,17.5536
19.6199,17.5450
19.6201,17.5449
19.6446,17.5305
19.6692,17.5102
19.6733,17.5061
19.6987,17.4791
20.4230,17.4791
20.4402,17.5009
20.4720,17.5287
20.5143,17.5477
20.5616,17.5568
20.6090,17.5546
20.6344,17.5476
20.6727,17.5247
20.7052,17.4894
20.7286,17.4464
20.7399,17.4005
20.7404,17.3884
20.7334,17.3446
20.7145,17.3009
20.6875,17.2653
20.6858,17.2637
20.6631,17.2428
20.6631,16.5145
20.6858,16.4935
20.7132,16.4587
20.7326,16.4152
20.7404,16.3712
20.7404,16.3689
20.7334,16.3251
20.7145,16.2814
20.6875,16.2458
20.6858,16.2443
20.6773,16.2360
20.6712,16.2274
20.6672,16.2157
20.6647,16.1980
20.6635,16.1713
20.6631,16.1328
20.6631,16.0866
20.6631,15.9499
22.4667,15.9499
22.4802,15.9705
22.5064,15.9962
22.5442,16.0151
22.5888,16.0252
22.6239,16.0260
22.6779,16.0146
22.7216,15.9897
22.7537,15.9526
22.7731,15.9044
22.7781,15.8718
22.7757,15.8253
22.7633,15.7820
22.7425,15.7466
22.7226,15.7281
22.7020,15.7146
22.7020,14.9855
22.7290,14.9601
22.7496,14.9367
22.7658,14.9113
22.7678,14.9069
22.7784,14.8634
22.7774,14.8150
22.7658,14.7677
22.7447,14.7280
22.7384,14.7203
22.7028,14.6929
22.6587,14.6766
22.6105,14.6715
22.5624,14.6774
22.5186,14.6942
22.4836,14.7218
22.4791,14.7272
22.4619,14.7490
20.6631,14.7490
20.6631,13.9680
20.6907,13.9395
20.7183,13.9110
22.4657,13.9110
22.4866,13.9337
22.5270,13.9660
22.5727,13.9837
22.6206,13.9873
22.6677,13.9772
22.7109,13.9540
22.7470,13.9181
22.7633,13.8919
22.7767,13.8495
22.7781,13.8026
22.7685,13.7562
22.7489,13.7154
22.7247,13.6887
22.7020,13.6709
22.7020,12.9464
22.7244,12.9254
22.7566,12.8843
22.7755,12.8356
22.7795,12.7990
22.7720,12.7461
22.7515,12.7014
22.7206,12.6659
22.6821,12.6408
22.6385,12.6272
22.5923,12.6261
22.5462,12.6387
22.5028,12.6661
22.4916,12.6765
22.4580,12.7101
21.7458,12.7101
21.7102,12.6762
21.6654,12.6443
21.6165,12.6283
21.5661,12.6284
21.5167,12.6444
21.4713,12.6761
21.4344,12.7101
19.6974,12.7101
19.6834,12.6886
19.6614,12.6666
19.6281,12.6466
19.5894,12.6318
19.5733,12.6280
19.5270,12.6275
19.4827,12.6416
19.4429,12.6675
19.4105,12.7026
19.3880,12.7442
19.3781,12.7896
17.0781,12.7896
17.0822,12.7794
17.1281,12.6936
17.1817,12.6143
17.2408,12.5453
17.2965,12.4953
17.3084,12.4875
17.3345,12.4716
17.3743,12.4478
17.4269,12.4166
17.4917,12.3785
17.5679,12.3337
17.6550,12.2827
17.7521,12.2260
17.8586,12.1639
17.9738,12.0968
18.0970,12.0252
18.2274,11.9494
18.3645,11.8699
18.5074,11.7870
18.6556,11.7012
18.8082,11.6129
18.9647,11.5225
19.0056,11.4989
19.2075,11.3823
19.3948,11.2742
19.5681,11.1743
19.7275,11.0825
19.8737,10.9985
20.0069,10.9220
20.1276,10.8529
20.2361,10.7910
20.3328,10.7359
20.4182,10.6875
20.4926,10.6456
20.5565,10.6099
20.6102,10.5802
20.6541,10.5562
20.6886,10.5379
20.7141,10.5248
20.7311,10.5168
20.7365,10.5147
20.8045,10.4941
20.8717,10.4809
20.9433,10.4745
21.0248,10.4743
Z" /> 
</g>
<g style="fill:none; 
stroke:#F2EDA1; stroke-width:0.1000; stroke-opacity:1; 
stroke-linecap:round; stroke-linejoin:round;">
<path d="M39.5000 19.5563
L39.5000 10.3563
" />
</g>
<g style="fill:#F2EDA1; fill-opacity:1.0000; stroke:none;">
<circle cx="4.5000" cy="8.2063" r="1.0500" /> 
</g>
<g style="fill:#F2EDA1; fill-opacity:1.0000; stroke:none;">
<circle cx="4.5000" cy="21.7063" r="1.0500" /> 
</g>
<g style="fill:#F2EDA1; fill-opacity:1.0000; stroke:none;">
<circle cx="4.5000" cy="12.7063" r="1.0500" /> 
</g>
<g style="fill:#F2EDA1; fill-opacity:1.0000; stroke:none;">
<circle cx="4.5000" cy="17.2063" r="1.0500" /> 
<path style="fill:#D864FF; fill-opacity:0.4000; stroke:none;fill-rule:evenodd;"
d="M 42.0000,18.6563
41.9617,18.6487
41.9293,18.6271
41.9076,18.5946
41.9000,18.5563
41.9000,18.1563
41.9076,18.1181
41.9293,18.0856
41.9617,18.0640
42.0000,18.0563
45.4000,18.0563
45.4383,18.0640
45.4707,18.0856
45.4924,18.1181
45.5000,18.1563
45.5000,18.5563
45.4924,18.5946
45.4707,18.6271
45.4383,18.6487
45.4000,18.6563
Z" /> 
<path style="fill:#D864FF; fill-opacity:0.4000; stroke:none;fill-rule:evenodd;"
d="M 42.0000,17.8563
41.9617,17.8487
41.9293,17.8271
41.9076,17.7946
41.9000,17.7563
41.9000,17.3563
41.9076,17.3181
41.9293,17.2856
41.9617,17.2640
42.0000,17.2563
44.6000,17.2563
44.6383,17.2640
44.6707,17.2856
44.6924,17.3181
44.7000,17.3563
44.7000,17.7563
44.6924,17.7946
44.6707,17.8271
44.6383,17.8487
44.6000,17.8563
Z" /> 
<path style="fill:#D864FF; fill-opacity:0.4000; stroke:none;fill-rule:evenodd;"
d="M 42.0000,17.0563
41.9617,17.0487
41.9293,17.0271
41.9076,16.9946
41.9000,16.9563
41.9000,16.5563
41.9076,16.5181
41.9293,16.4856
41.9617,16.4640
42.0000,16.4563
44.6000,16.4563
44.6383,16.4640
44.6707,16.4856
44.6924,16.5181
44.7000,16.5563
44.7000,16.9563
44.6924,16.9946
44.6707,17.0271
44.6383,17.0487
44.6000,17.0563
Z" /> 
<path style="fill:#D864FF; fill-opacity:0.4000; stroke:none;fill-rule:evenodd;"
d="M 42.0000,16.2563
41.9617,16.2487
41.9293,16.2271
41.9076,16.1946
41.9000,16.1563
41.9000,15.7563
41.9076,15.7181
41.9293,15.6856
41.9617,15.6640
42.0000,15.6563
45.4000,15.6563
45.4383,15.6640
45.4707,15.6856
45.4924,15.7181
45.5000,15.7563
45.5000,16.1563
45.4924,16.1946
45.4707,16.2271
45.4383,16.2487
45.4000,16.2563
Z" /> 
<path style="fill:#D864FF; fill-opacity:0.4000; stroke:none;fill-rule:evenodd;"
d="M 42.0000,15.4563
41.9617,15.4487
41.9293,15.4271
41.9076,15.3946
41.9000,15.3563
41.9000,14.9563
41.9076,14.9181
41.9293,14.8856
41.9617,14.8640
42.0000,14.8563
45.0000,14.8563
45.0383,14.8640
45.0707,14.8856
45.0924,14.9181
45.1000,14.9563
45.1000,15.3563
45.0924,15.3946
45.0707,15.4271
45.0383,15.4487
45.0000,15.4563
Z" /> 
<path style="fill:#D864FF; fill-opacity:0.4000; stroke:none;fill-rule:evenodd;"
d="M 42.0000,14.6563
41.9617,14.6487
41.9293,14.6271
41.9076,14.5946
41.9000,14.5563
41.9000,14.1563
41.9076,14.1181
41.9293,14.0856
41.9617,14.0640
42.0000,14.0563
45.0000,14.0563
45.0383,14.0640
45.0707,14.0856
45.0924,14.1181
45.1000,14.1563
45.1000,14.5563
45.0924,14.5946
45.0707,14.6271
45.0383,14.6487
45.0000,14.6563
Z" /> 
<path style="fill:#D864FF; fill-opacity:0.4000; stroke:none;fill-rule:evenodd;"
d="M 42.0000,13.8563
41.9617,13.8487
41.9293,13.8271
41.9076,13.7946
41.9000,13.7563
41.9000,13.3563
41.9076,13.3181
41.9293,13.2856
41.9617,13.2640
42.0000,13.2563
45.4000,13.2563
45.4383,13.2640
45.4707,13.2856
45.4924,13.3181
45.5000,13.3563
45.5000,13.7563
45.4924,13.7946
45.4707,13.8271
45.4383,13.8487
45.4000,13.8563
Z" /> 
<path style="fill:#D864FF; fill-opacity:0.4000; stroke:none;fill-rule:evenodd;"
d="M 42.0000,13.0563
41.9617,13.0487
41.9293,13.0271
41.9076,12.9946
41.9000,12.9563
41.9000,12.5563
41.9076,12.5181
41.9293,12.4856
41.9617,12.4640
42.0000,12.4563
44.6000,12.4563
44.6383,12.4640
44.6707,12.4856
44.6924,12.5181
44.7000,12.5563
44.7000,12.9563
44.6924,12.9946
44.6707,13.0271
44.6383,13.0487
44.6000,13.0563
Z" /> 
<path style="fill:#D864FF; fill-opacity:0.4000; stroke:none;fill-rule:evenodd;"
d="M 42.0000,12.2563
41.9617,12.2487
41.9293,12.2271
41.9076,12.1946
41.9000,12.1563
41.9000,11.7563
41.9076,11.7181
41.9293,11.6856
41.9617,11.6640
42.0000,11.6563
44.6000,11.6563
44.6383,11.6640
44.6707,11.6856
44.6924,11.7181
44.7000,11.7563
44.7000,12.1563
44.6924,12.1946
44.6707,12.2271
44.6383,12.2487
44.6000,12.2563
Z" /> 
<path style="fill:#D864FF; fill-opacity:0.4000; stroke:none;fill-rule:evenodd;"
d="M 42.0000,11.4563
41.9617,11.4487
41.9293,11.4271
41.9076,11.3946
41.9000,11.3563
41.9000,10.9563
41.9076,10.9181
41.9293,10.8856
41.9617,10.8640
42.0000,10.8563
45.4000,10.8563
45.4383,10.8640
45.4707,10.8856
45.4924,10.9181
45.5000,10.9563
45.5000,11.3563
45.4924,11.3946
45.4707,11.4271
45.4383,11.4487
45.4000,11.4563
Z" /> 
</g>
<g style="fill:#D864FF; fill-opacity:0.4000; stroke:none;">
<circle cx="4.5000" cy="8.2063" r="1.0500" /> 
</g>
<g style="fill:#D864FF; fill-opacity:0.4000; stroke:none;">
<circle cx="4.5000" cy="21.7063" r="1.0500" /> 
</g>
<g style="fill:#D864FF; fill-opacity:0.4000; stroke:none;">
<circle cx="4.5000" cy="12.7063" r="1.0500" /> 
</g>
<g style="fill:#D864FF; fill-opacity:0.4000; stroke:none;">
<circle cx="4.5000" cy="17.2063" r="1.0500" /> 
</g>
<g style="fill:none; 
stroke:#D0D2CD; stroke-width:0.0500; stroke-opacity:1; 
stroke-linecap:round; stroke-linejoin:round;">
<path d="M1.0000 5.9563
L45.5000 5.9563
" />
<path d="M46.0000 6.4563
L46.0000 8.4563
" />
<path d="M45.5000 8.9563
L40.0000 8.9563
" />
<path d="M39.5000 9.4563
L39.5000 10.0563
" />
<path d="M40.0000 10.5563
L45.5000 10.5563
" />
<path d="M46.0000 11.0563
L46.0000 19.0563
" />
<path d="M45.5000 19.5563
L40.0000 19.5563
" />
<path d="M39.5000 20.0563
L39.5000 20.4563
" />
<path d="M40.0000 20.9563
L45.5000 20.9563
" />
<path d="M46.0000 21.4563
L46.0000 23.4563
" />
<path d="M45.5000 23.9563
L1.5000 23.9563
" />
<path d="M1.0000 23.4563
L1.0000 5.9563
" />
<path d="M46.0000 6.4563 A0.5000 0.5000 0.0 0 0 45.5000 5.9563" />
<path d="M45.5000 8.9563 A0.5000 0.5000 0.0 0 0 46.0000 8.4563" />
<path d="M40.0000 8.9563 A0.5000 0.5000 0.0 0 0 39.5000 9.4563" />
<path d="M39.5000 10.0563 A0.5000 0.5000 0.0 0 0 40.0000 10.5563" />
<path d="M46.0000 11.0563 A0.5000 0.5000 0.0 0 0 45.5000 10.5563" />
<path d="M45.5000 19.5563 A0.5000 0.5000 0.0 0 0 46.0000 19.0563" />
<path d="M40.0000 19.5563 A0.5000 0.5000 0.0 0 0 39.5000 20.0563" />
<path d="M39.5000 20.4563 A0.5000 0.5000 0.0 0 0 40.0000 20.9563" />
<path d="M46.0000 21.4563 A0.5000 0.5000 0.0 0 0 45.5000 20.9563" />
<path d="M45.5000 23.9563 A0.5000 0.5000 0.0 0 0 46.0000 23.4563" />
<path d="M1.0000 23.4563 A0.5000 0.5000 0.0 0 0 1.5000 23.9563" />
</g>
<g style="fill:#D0D2CD; fill-opacity:1.0000; stroke:none;">
<circle cx="4.5000" cy="8.2063" r="1.0500" /> 
</g>
<g style="fill:#D0D2CD; fill-opacity:1.0000; stroke:none;">
<circle cx="4.5000" cy="21.7063" r="1.0500" /> 
</g>
<g style="fill:#D0D2CD; fill-opacity:1.0000; stroke:none;">
<circle cx="4.5000" cy="12.7063" r="1.0500" /> 
</g>
<g style="fill:#D0D2CD; fill-opacity:1.0000; stroke:none;">
<circle cx="4.5000" cy="17.2063" r="1.0500" /> 
<path style="fill:#C83434; fill-opacity:1.0000; stroke:none;fill-rule:evenodd;"
d="M 42.0000,18.6563
41.9617,18.6487
41.9293,18.6271
41.9076,18.5946
41.9000,18.5563
41.9000,18.1563
41.9076,18.1181
41.9293,18.0856
41.9617,18.0640
42.0000,18.0563
45.4000,18.0563
45.4383,18.0640
45.4707,18.0856
45.4924,18.1181
45.5000,18.1563
45.5000,18.5563
45.4924,18.5946
45.4707,18.6271
45.4383,18.6487
45.4000,18.6563
Z" /> 
<path style="fill:#C83434; fill-opacity:1.0000; stroke:none;fill-rule:evenodd;"
d="M 42.0000,17.8563
41.9617,17.8487
41.9293,17.8271
41.9076,17.7946
41.9000,17.7563
41.9000,17.3563
41.9076,17.3181
41.9293,17.2856
41.9617,17.2640
42.0000,17.2563
44.6000,17.2563
44.6383,17.2640
44.6707,17.2856
44.6924,17.3181
44.7000,17.3563
44.7000,17.7563
44.6924,17.7946
44.6707,17.8271
44.6383,17.8487
44.6000,17.8563
Z" /> 
<path style="fill:#C83434; fill-opacity:1.0000; stroke:none;fill-rule:evenodd;"
d="M 42.0000,17.0563
41.9617,17.0487
41.9293,17.0271
41.9076,16.9946
41.9000,16.9563
41.9000,16.5563
41.9076,16.5181
41.9293,16.4856
41.9617,16.4640
42.0000,16.4563
44.6000,16.4563
44.6383,16.4640
44.6707,16.4856
44.6924,16.5181
44.7000,16.5563
44.7000,16.9563
44.6924,16.9946
44.6707,17.0271
44.6383,17.0487
44.6000,17.0563
Z" /> 
<path style="fill:#C83434; fill-opacity:1.0000; stroke:none;fill-rule:evenodd;"
d="M 42.0000,16.2563
41.9617,16.2487
41.9293,16.2271
41.9076,16.1946
41.9000,16.1563
41.9000,15.7563
41.9076,15.7181
41.9293,15.6856
41.9617,15.6640
42.0000,15.6563
45.4000,15.6563
45.4383,15.6640
45.4707,15.6856
45.4924,15.7181
45.5000,15.7563
45.5000,16.1563
45.4924,16.1946
45.4707,16.2271
45.4383,16.2487
45.4000,16.2563
Z" /> 
<path style="fill:#C83434; fill-opacity:1.0000; stroke:none;fill-rule:evenodd;"
d="M 42.0000,15.4563
41.9617,15.4487
41.9293,15.4271
41.9076,15.3946
41.9000,15.3563
41.9000,14.9563
41.9076,14.9181
41.9293,14.8856
41.9617,14.8640
42.0000,14.8563
45.0000,14.8563
45.0383,14.8640
45.0707,14.8856
45.0924,14.9181
45.1000,14.9563
45.1000,15.3563
45.0924,15.3946
45.0707,15.4271
45.0383,15.4487
45.0000,15.4563
Z" /> 
<path style="fill:#C83434; fill-opacity:1.0000; stroke:none;fill-rule:evenodd;"
d="M 42.0000,14.6563
41.9617,14.6487
41.9293,14.6271
41.9076,14.5946
41.9000,14.5563
41.9000,14.1563
41.9076,14.1181
41.9293,14.0856
41.9617,14.0640
42.0000,14.0563
45.0000,14.0563
45.0383,14.0640
45.0707,14.0856
45.0924,14.1181
45.1000,14.1563
45.1000,14.5563
45.0924,14.5946
45.0707,14.6271
45.0383,14.6487
45.0000,14.6563
Z" /> 
<path style="fill:#C83434; fill-opacity:1.0000; stroke:none;fill-rule:evenodd;"
d="M 42.0000,13.8563
41.9617,13.8487
41.9293,13.8271
41.9076,13.7946
41.9000,13.7563
41.9000,13.3563
41.9076,13.3181
41.9293,13.2856
41.9617,13.2640
42.0000,13.2563
45.4000,13.2563
45.4383,13.2640
45.4707,13.2856
45.4924,13.3181
45.5000,13.3563
45.5000,13.7563
45.4924,13.7946
45.4707,13.8271
45.4383,13.8487
45.4000,13.8563
Z" /> 
<path style="fill:#C83434; fill-opacity:1.0000; stroke:none;fill-rule:evenodd;"
d="M 42.0000,13.0563
41.9617,13.0487
41.9293,13.0271
41.9076,12.9946
41.9000,12.9563
41.9000,12.5563
41.9076,12.5181
41.9293,12.4856
41.9617,12.4640
42.0000,12.4563
44.6000,12.4563
44.6383,12.4640
44.6707,12.4856
44.6924,12.5181
44.7000,12.5563
44.7000,12.9563
44.6924,12.9946
44.6707,13.0271
44.6383,13.0487
44.6000,13.0563
Z" /> 
<path style="fill:#C83434; fill-opacity:1.0000; stroke:none;fill-rule:evenodd;"
d="M 42.0000,12.2563
41.9617,12.2487
41.9293,12.2271
41.9076,12.1946
41.9000,12.1563
41.9000,11.7563
41.9076,11.7181
41.9293,11.6856
41.9617,11.6640
42.0000,11.6563
44.6000,11.6563
44.6383,11.6640
44.6707,11.6856
44.6924,11.7181
44.7000,11.7563
44.7000,12.1563
44.6924,12.1946
44.6707,12.2271
44.6383,12.2487
44.6000,12.2563
Z" /> 
<path style="fill:#C83434; fill-opacity:1.0000; stroke:none;fill-rule:evenodd;"
d="M 42.0000,11.4563
41.9617,11.4487
41.9293,11.4271
41.9076,11.3946
41.9000,11.3563
41.9000,10.9563
41.9076,10.9181
41.9293,10.8856
41.9617,10.8640
42.0000,10.8563
45.4000,10.8563
45.4383,10.8640
45.4707,10.8856
45.4924,10.9181
45.5000,10.9563
45.5000,11.3563
45.4924,11.3946
45.4707,11.4271
45.4383,11.4487
45.4000,11.4563
Z" /> 
</g>
<g style="fill:#C83434; fill-opacity:1.0000; stroke:none;">
<circle cx="4.5000" cy="8.2063" r="1.0500" /> 
</g>
<g style="fill:#C83434; fill-opacity:1.0000; stroke:none;">
<circle cx="4.5000" cy="21.7063" r="1.0500" /> 
</g>
<g style="fill:#C83434; fill-opacity:1.0000; stroke:none;">
<circle cx="4.5000" cy="12.7063" r="1.0500" /> 
</g>
<g style="fill:#C83434; fill-opacity:1.0000; stroke:none;">
<circle cx="4.5000" cy="17.2063" r="1.0500" /> 
</g>
<g style="fill:#ECECEC; fill-opacity:1.0000; stroke:none;">
<circle cx="29.0000" cy="7.7563" r="0.2500" /> 
</g>
<g style="fill:#ECECEC; fill-opacity:1.0000; stroke:none;">
<circle cx="15.9000" cy="13.9563" r="0.2500" /> 
</g>
<g style="fill:#ECECEC; fill-opacity:1.0000; stroke:none;">
<circle cx="23.6500" cy="19.1563" r="0.2500" /> 
</g>
<g style="fill:#ECECEC; fill-opacity:1.0000; stroke:none;">
<circle cx="16.2500" cy="17.8563" r="0.2500" /> 
</g>
<g style="fill:#ECECEC; fill-opacity:1.0000; stroke:none;">
<circle cx="14.7500" cy="10.2063" r="0.2500" /> 
</g>
<g style="fill:#ECECEC; fill-opacity:1.0000; stroke:none;">
<circle cx="2.7500" cy="19.4563" r="0.2500" /> 
</g>
<g style="fill:#ECECEC; fill-opacity:1.0000; stroke:none;">
<circle cx="20.2000" cy="22.4563" r="0.2500" /> 
</g>
<g style="fill:#ECECEC; fill-opacity:1.0000; stroke:none;">
<circle cx="35.0000" cy="9.4563" r="0.2500" /> 
</g>
<g style="fill:#ECECEC; fill-opacity:1.0000; stroke:none;">
<circle cx="24.8000" cy="11.1563" r="0.2500" /> 
</g>
<g style="fill:#ECECEC; fill-opacity:1.0000; stroke:none;">
<circle cx="22.7500" cy="7.4563" r="0.2500" /> 
</g>
<g style="fill:#ECECEC; fill-opacity:1.0000; stroke:none;">
<circle cx="29.7500" cy="15.4563" r="0.2500" /> 
</g>
<g style="fill:#ECECEC; fill-opacity:1.0000; stroke:none;">
<circle cx="39.0000" cy="18.7063" r="0.2500" /> 
</g>
<g style="fill:#ECECEC; fill-opacity:1.0000; stroke:none;">
<circle cx="26.4000" cy="12.5563" r="0.2500" /> 
</g>
<g style="fill:#ECECEC; fill-opacity:1.0000; stroke:none;">
<circle cx="29.5500" cy="11.7563" r="0.2500" /> 
</g>
<g style="fill:#ECECEC; fill-opacity:1.0000; stroke:none;">
<circle cx="22.9000" cy="10.1563" r="0.2500" /> 
</g>
<g style="fill:#ECECEC; fill-opacity:1.0000; stroke:none;">
<circle cx="20.5000" cy="7.4563" r="0.2500" /> 
</g>
<g style="fill:#ECECEC; fill-opacity:1.0000; stroke:none;">
<circle cx="22.1000" cy="16.7063" r="0.2500" /> 
</g>
<g style="fill:#ECECEC; fill-opacity:1.0000; stroke:none;">
<circle cx="17.2500" cy="9.4063" r="0.2500" /> 
</g>
<g style="fill:#ECECEC; fill-opacity:1.0000; stroke:none;">
<circle cx="39.0000" cy="11.2063" r="0.2500" /> 
</g>
<g style="fill:#ECECEC; fill-opacity:1.0000; stroke:none;">
<circle cx="15.0000" cy="19.3563" r="0.2500" /> 
</g>
<g style="fill:#ECECEC; fill-opacity:1.0000; stroke:none;">
<circle cx="18.5000" cy="19.9563" r="0.2500" /> 
</g>
<g style="fill:#ECECEC; fill-opacity:1.0000; stroke:none;">
<circle cx="18.5000" cy="10.1563" r="0.2500" /> 
</g>
<g style="fill:#ECECEC; fill-opacity:1.0000; stroke:none;">
<circle cx="13.5000" cy="15.3563" r="0.2500" /> 
</g>
<g style="fill:#ECECEC; fill-opacity:1.0000; stroke:none;">
<circle cx="27.7000" cy="22.5063" r="0.2500" /> 
</g>
<g style="fill:#ECECEC; fill-opacity:1.0000; stroke:none;">
<circle cx="2.7500" cy="10.4563" r="0.2500" /> 
</g>
<g style="fill:#ECECEC; fill-opacity:1.0000; stroke:none;">
<circle cx="26.7500" cy="19.4563" r="0.2500" /> 
</g>
<g style="fill:#ECECEC; fill-opacity:1.0000; stroke:none;">
<circle cx="20.7500" cy="21.7063" r="0.2500" /> 
</g>
<g style="fill:#ECECEC; fill-opacity:1.0000; stroke:none;">
<circle cx="28.3000" cy="10.7563" r="0.2500" /> 
</g>
<g style="fill:#ECECEC; fill-opacity:1.0000; stroke:none;">
<circle cx="13.5000" cy="19.2063" r="0.2500" /> 
</g>
<g style="fill:#ECECEC; fill-opacity:1.0000; stroke:none;">
<circle cx="39.5000" cy="14.9563" r="0.2500" /> 
</g>
<g style="fill:#ECECEC; fill-opacity:1.0000; stroke:none;">
<circle cx="11.0000" cy="17.2063" r="0.2500" /> 
</g>
<g style="fill:#ECECEC; fill-opacity:1.0000; stroke:none;">
<circle cx="37.5000" cy="14.9563" r="0.2500" /> 
</g>
<g style="fill:#ECECEC; fill-opacity:1.0000; stroke:none;">
<circle cx="30.2500" cy="20.9563" r="0.2500" /> 
</g>
<g style="fill:#ECECEC; fill-opacity:1.0000; stroke:none;">
<circle cx="11.0000" cy="8.2063" r="0.2500" /> 
</g>
<g style="fill:#ECECEC; fill-opacity:1.0000; stroke:none;">
<circle cx="30.5000" cy="13.6563" r="0.2500" /> 
</g>
<g style="fill:#ECECEC; fill-opacity:1.0000; stroke:none;">
<circle cx="30.5000" cy="14.6563" r="0.2500" /> 
</g>
<g style="fill:#ECECEC; fill-opacity:1.0000; stroke:none;">
<circle cx="11.0000" cy="12.7063" r="0.2500" /> 
</g>
<g style="fill:#ECECEC; fill-opacity:1.0000; stroke:none;">
<circle cx="40.4000" cy="11.9563" r="0.2500" /> 
</g>
<g style="fill:#ECECEC; fill-opacity:1.0000; stroke:none;">
<circle cx="19.1250" cy="9.5563" r="0.2500" /> 
</g>
<g style="fill:#ECECEC; fill-opacity:1.0000; stroke:none;">
<circle cx="19.8750" cy="9.5563" r="0.2500" /> 
</g>
<g style="fill:none; 
stroke:#C83434; stroke-width:0.3500; stroke-opacity:1; 
stroke-linecap:round; stroke-linejoin:round;">
<path d="M24.5000 21.7063
L26.7500 19.4563
" />
<path d="M20.7500 21.7063
L24.5000 21.7063
" />
<path d="M20.7500 21.7063
L16.0000 21.7063
" />
<path d="M29.8000 10.7563
L28.3000 10.7563
" />
<path d="M26.7500 19.4563
L29.7500 16.4563
" />
<path d="M16.0000 21.7063
L13.5000 19.2063
" />
<path d="M31.7500 14.9563
L31.7500 12.7063
" />
<path d="M30.2500 16.4563
L31.7500 14.9563
" />
<path d="M29.7500 16.4563
L30.2500 16.4563
" />
<path d="M30.2250 11.1813
L29.8000 10.7563
" />
<path d="M31.7500 12.7063
L30.2250 11.1813
" />
<path d="M30.2500 20.9563
L30.2500 21.9563
" />
<path d="M41.2000 15.1563
L41.0000 14.9563
" />
<path d="M41.0000 14.5563
L41.2000 14.3563
" />
<path d="M13.5000 23.2063
L11.0000 20.7063
" />
<path d="M29.0000 23.2063
L13.5000 23.2063
" />
<path d="M41.2000 14.3563
L41.9000 14.3563
" />
<path d="M30.2500 21.9563
L29.0000 23.2063
" />
<path d="M41.0000 14.7063
L41.0000 14.5563
" />
<path d="M39.7500 14.7063
L41.0000 14.7063
" />
<path d="M11.0000 20.7063
L11.0000 17.2063
" />
<path d="M37.5000 14.9563
L36.2500 14.9563
" />
<path d="M41.0000 14.9563
L41.0000 14.7063
" />
<path d="M39.5000 14.9563
L39.7500 14.7063
" />
<path d="M41.9000 15.1563
L41.2000 15.1563
" />
<path d="M36.2500 14.9563
L30.2500 20.9563
" />
</g>
<g style="fill:none; 
stroke:#C83434; stroke-width:0.2500; stroke-opacity:1; 
stroke-linecap:round; stroke-linejoin:round;">
<path d="M16.4500 13.6563
L11.0000 8.2063
" />
<path d="M30.5000 13.6563
L16.4500 13.6563
" />
<path d="M30.5000 14.6563
L12.9500 14.6563
" />
<path d="M12.9500 14.6563
L11.0000 12.7063
" />
<path d="M40.4000 11.9563
L41.9000 11.9563
" />
</g>
<g style="fill:none; 
stroke:#C83434; stroke-width:0.2000; stroke-opacity:1; 
stroke-linecap:round; stroke-linejoin:round;">
<path d="M40.6250 16.9313
L39.4932 16.9313
" />
<path d="M38.6250 9.8631
L37.0932 8.3313
" />
<path d="M37.0932 8.3313
L20.3500 8.3313
" />
<path d="M41.9000 16.7563
L40.8000 16.7563
" />
<path d="M39.4932 16.9313
L38.6250 16.0631
" />
<path d="M40.8000 16.7563
L40.6250 16.9313
" />
<path d="M38.6250 16.0631
L38.6250 9.8631
" />
<path d="M20.3500 8.3313
L19.1250 9.5563
" />
<path d="M40.8000 17.5563
L40.6250 17.3813
" />
<path d="M38.1750 10.0495
L36.9068 8.7813
" />
<path d="M36.9068 8.7813
L20.5364 8.7813
" />
<path d="M41.9000 17.5563
L40.8000 17.5563
" />
<path d="M39.3068 17.3813
L38.1750 16.2495
" />
<path d="M19.8750 9.4427
L19.8750 9.5563
" />
<path d="M40.6250 17.3813
L39.3068 17.3813
" />
<path d="M38.1750 16.2495
L38.1750 10.0495
" />
<path d="M20.5364 8.7813
L19.8750 9.4427
" />
</g>
<g style="fill:#FFFFFF; fill-opacity:1.0000; stroke:none;">
<circle cx="29.0000" cy="7.7563" r="0.1500" /> 
</g>
<g style="fill:#FFFFFF; fill-opacity:1.0000; stroke:none;">
<circle cx="15.9000" cy="13.9563" r="0.1500" /> 
</g>
<g style="fill:#FFFFFF; fill-opacity:1.0000; stroke:none;">
<circle cx="23.6500" cy="19.1563" r="0.1500" /> 
</g>
<g style="fill:#FFFFFF; fill-opacity:1.0000; stroke:none;">
<circle cx="16.2500" cy="17.8563" r="0.1500" /> 
</g>
<g style="fill:#FFFFFF; fill-opacity:1.0000; stroke:none;">
<circle cx="14.7500" cy="10.2063" r="0.1500" /> 
</g>
<g style="fill:#FFFFFF; fill-opacity:1.0000; stroke:none;">
<circle cx="2.7500" cy="19.4563" r="0.1500" /> 
</g>
<g style="fill:#FFFFFF; fill-opacity:1.0000; stroke:none;">
<circle cx="20.2000" cy="22.4563" r="0.1500" /> 
</g>
<g style="fill:#FFFFFF; fill-opacity:1.0000; stroke:none;">
<circle cx="35.0000" cy="9.4563" r="0.1500" /> 
</g>
<g style="fill:#FFFFFF; fill-opacity:1.0000; stroke:none;">
<circle cx="24.8000" cy="11.1563" r="0.1500" /> 
</g>
<g style="fill:#FFFFFF; fill-opacity:1.0000; stroke:none;">
<circle cx="22.7500" cy="7.4563" r="0.1500" /> 
</g>
<g style="fill:#FFFFFF; fill-opacity:1.0000; stroke:none;">
<circle cx="29.7500" cy="15.4563" r="0.1500" /> 
</g>
<g style="fill:#FFFFFF; fill-opacity:1.0000; stroke:none;">
<circle cx="39.0000" cy="18.7063" r="0.1500" /> 
</g>
<g style="fill:#FFFFFF; fill-opacity:1.0000; stroke:none;">
<circle cx="26.4000" cy="12.5563" r="0.1500" /> 
</g>
<g style="fill:#FFFFFF; fill-opacity:1.0000; stroke:none;">
<circle cx="29.5500" cy="11.7563" r="0.1500" /> 
</g>
<g style="fill:#FFFFFF; fill-opacity:1.0000; stroke:none;">
<circle cx="22.9000" cy="10.1563" r="0.1500" /> 
</g>
<g style="fill:#FFFFFF; fill-opacity:1.0000; stroke:none;">
<circle cx="20.5000" cy="7.4563" r="0.1500" /> 
</g>
<g style="fill:#FFFFFF; fill-opacity:1.0000; stroke:none;">
<circle cx="22.1000" cy="16.7063" r="0.1500" /> 
</g>
<g style="fill:#FFFFFF; fill-opacity:1.0000; stroke:none;">
<circle cx="17.2500" cy="9.4063" r="0.1500" /> 
</g>
<g style="fill:#FFFFFF; fill-opacity:1.0000; stroke:none;">
<circle cx="39.0000" cy="11.2063" r="0.1500" /> 
</g>
<g style="fill:#FFFFFF; fill-opacity:1.0000; stroke:none;">
<circle cx="15.0000" cy="19.3563" r="0.1500" /> 
</g>
<g style="fill:#FFFFFF; fill-opacity:1.0000; stroke:none;">
<circle cx="18.5000" cy="19.9563" r="0.1500" /> 
</g>
<g style="fill:#FFFFFF; fill-opacity:1.0000; stroke:none;">
<circle cx="18.5000" cy="10.1563" r="0.1500" /> 
</g>
<g style="fill:#FFFFFF; fill-opacity:1.0000; stroke:none;">
<circle cx="13.5000" cy="15.3563" r="0.1500" /> 
</g>
<g style="fill:#FFFFFF; fill-opacity:1.0000; stroke:none;">
<circle cx="27.7000" cy="22.5063" r="0.1500" /> 
</g>
<g style="fill:#FFFFFF; fill-opacity:1.0000; stroke:none;">
<circle cx="2.7500" cy="10.4563" r="0.1500" /> 
</g>
<g style="fill:#FFFFFF; fill-opacity:1.0000; stroke:none;">
<circle cx="26.7500" cy="19.4563" r="0.1500" /> 
</g>
<g style="fill:#FFFFFF; fill-opacity:1.0000; stroke:none;">
<circle cx="20.7500" cy="21.7063" r="0.1500" /> 
</g>
<g style="fill:#FFFFFF; fill-opacity:1.0000; stroke:none;">
<circle cx="28.3000" cy="10.7563" r="0.1500" /> 
</g>
<g style="fill:#FFFFFF; fill-opacity:1.0000; stroke:none;">
<circle cx="13.5000" cy="19.2063" r="0.1500" /> 
</g>
<g style="fill:#FFFFFF; fill-opacity:1.0000; stroke:none;">
<circle cx="39.5000" cy="14.9563" r="0.1500" /> 
</g>
<g style="fill:#FFFFFF; fill-opacity:1.0000; stroke:none;">
<circle cx="11.0000" cy="17.2063" r="0.1500" /> 
</g>
<g style="fill:#FFFFFF; fill-opacity:1.0000; stroke:none;">
<circle cx="37.5000" cy="14.9563" r="0.1500" /> 
</g>
<g style="fill:#FFFFFF; fill-opacity:1.0000; stroke:none;">
<circle cx="30.2500" cy="20.9563" r="0.1500" /> 
</g>
<g style="fill:#FFFFFF; fill-opacity:1.0000; stroke:none;">
<circle cx="11.0000" cy="8.2063" r="0.1500" /> 
</g>
<g style="fill:#FFFFFF; fill-opacity:1.0000; stroke:none;">
<circle cx="30.5000" cy="13.6563" r="0.1500" /> 
</g>
<g style="fill:#FFFFFF; fill-opacity:1.0000; stroke:none;">
<circle cx="30.5000" cy="14.6563" r="0.1500" /> 
</g>
<g style="fill:#FFFFFF; fill-opacity:1.0000; stroke:none;">
<circle cx="11.0000" cy="12.7063" r="0.1500" /> 
</g>
<g style="fill:#FFFFFF; fill-opacity:1.0000; stroke:none;">
<circle cx="40.4000" cy="11.9563" r="0.1500" /> 
</g>
<g style="fill:#FFFFFF; fill-opacity:1.0000; stroke:none;">
<circle cx="19.1250" cy="9.5563" r="0.1500" /> 
</g>
<g style="fill:#FFFFFF; fill-opacity:1.0000; stroke:none;">
<circle cx="19.8750" cy="9.5563" r="0.1500" /> 
</g>
<g style="fill:#FFFFFF; fill-opacity:1.0000; stroke:none;">
<circle cx="4.5000" cy="8.2063" r="1.0500" /> 
</g>
<g style="fill:#FFFFFF; fill-opacity:1.0000; stroke:none;">
<circle cx="4.5000" cy="21.7063" r="1.0500" /> 
</g>
<g style="fill:#FFFFFF; fill-opacity:1.0000; stroke:none;">
<circle cx="4.5000" cy="12.7063" r="1.0500" /> 
</g>
<g style="fill:#FFFFFF; fill-opacity:1.0000; stroke:none;">
<circle cx="4.5000" cy="17.2063" r="1.0500" /> 
</g> 
</svg>
